<?xml version="1.0" encoding="iso-8859-1"?>
<!-- Generator: Adobe Illustrator 19.0.0, SVG Export Plug-In . SVG Version: 6.00 Build 0)  -->
<svg version="1.1" id="Layer_1" xmlns="http://www.w3.org/2000/svg" xmlns:xlink="http://www.w3.org/1999/xlink" x="0px" y="0px"
	 viewBox="0 0 512 512" style="enable-background:new 0 0 512 512;" xml:space="preserve">
<circle style="fill:#21D0C3;" cx="256" cy="255.999" r="255.999"/>
<path style="fill:#FFFFFF;" d="M89.577,61.494h332.854h49.549c6.004,0,10.915,4.915,10.915,10.915v64.959v237.266
	c-95.572,182.404-358.213,182.404-453.782-0.003V137.369V72.408c0-6.004,4.913-10.915,10.915-10.915
	C40.027,61.494,89.577,61.494,89.577,61.494z"/>
<path style="fill:#ECF0F1;" d="M260.818,233.018c13.794,0,26.901,2.943,38.729,8.234c-7.408-1.713-15.119-2.621-23.046-2.621
	c-56.29,0-101.922,45.633-101.922,101.922c0,15.867,3.628,30.884,10.096,44.273c-11.843-15.846-18.854-35.507-18.854-56.812
	c0-52.465,42.53-94.995,94.995-94.995L260.818,233.018z"/>
<path style="fill:#828282;" d="M40.028,61.494h431.951c6.004,0,10.917,4.913,10.917,10.917v21.831H29.115V72.41
	c0-6.004,4.913-10.917,10.917-10.917C40.031,61.494,40.028,61.494,40.028,61.494z"/>
<path style="fill:#FFFFFF;" d="M231.133,72.798h219.202c1.62,0,2.932,1.312,2.932,2.932v5.44c0,1.62-1.312,2.932-2.932,2.932
	H231.133c-1.62,0-2.932-1.312-2.932-2.932v-5.439C228.201,74.112,229.513,72.798,231.133,72.798z"/>
<circle style="fill:#21D0C3;" cx="50.885" cy="77.139" r="6.285"/>
<circle style="fill:#FAD24D;" cx="75.696" cy="77.139" r="6.285"/>
<circle style="fill:#FF5B62;" cx="100.505" cy="77.139" r="6.285"/>
<path style="fill:#FEFEFE;" d="M316.31,250.908c23.924,17.249,39.503,45.357,39.503,77.103c0,52.465-42.53,94.995-94.995,94.995
	c-16.992,0-32.937-4.464-46.736-12.278c-23.924-17.249-39.503-45.357-39.503-77.103c0-52.465,42.53-94.995,94.995-94.995
	C286.564,238.631,302.51,243.095,316.31,250.908z"/>
<rect x="53.67" y="106.242" style="fill:#ECF0F1;" width="404.667" height="133.488"/>
<circle style="fill:#FF5B62;" cx="113.709" cy="286.129" r="26.899"/>
<circle style="fill:#21D0C3;" cx="398.291" cy="286.129" r="26.899"/>
<g>
	<path style="fill:#DCE3DB;" d="M75.113,321.994h77.19v5.458h-77.19V321.994z M75.113,356.301h51.848v5.458H75.113V356.301z
		 M75.113,339.147h77.19v5.458h-77.19V339.147z"/>
	<path style="fill:#DCE3DB;" d="M213.063,331.306l102.032-1.194l0.089,6.828l-102.032,1.194L213.063,331.306z M213.621,364.775
		l68.534-0.8l0.089,6.828l-68.534,0.8L213.621,364.775z M213.341,348.041l102.032-1.194l0.089,6.828l-102.029,1.191l-0.089-6.825
		L213.341,348.041L213.341,348.041z"/>
	<path style="fill:#DCE3DB;" d="M359.702,321.994h77.19v5.458h-77.19V321.994z M359.702,356.301h51.848v5.458h-51.848V356.301z
		 M359.702,339.147h77.19v5.458h-77.19V339.147z"/>
</g>
<g>
	<path style="fill:#ECF0F1;" d="M75.113,396.685h99.525v77.971h-51.83c-17.367-10.602-33.373-23.211-47.694-37.509v-40.46v-0.003
		H75.113z M436.892,437.147c-14.319,14.301-30.328,26.909-47.695,37.509h-51.83v-77.971h99.525V437.147z M206.241,474.656v-77.971
		h99.522v77.971H206.241z"/>
	<rect x="112.641" y="386.144" style="fill:#ECF0F1;" width="284.722" height="1.679"/>
	<rect x="183.103" y="385.465" style="fill:#ECF0F1;" width="157.112" height="5.073"/>
	<path style="fill:#ECF0F1;" d="M112.636,248.257h115.231c-1.102,0.538-2.191,1.097-3.269,1.676H112.636V248.257z M311.284,248.257
		h86.073v1.676h-82.811C313.471,249.354,312.383,248.795,311.284,248.257z"/>
</g>
<path style="fill:#21D0C3;" d="M364.791,311.582c-9.076-57.488-62.761-96.736-120.648-87.661v0.003
	c-56.889,9.075-96.616,63.038-87.541,120.527c9.075,57.485,63.099,96.734,120.587,87.658c16.911-2.67,32.27-9.225,45.256-18.611
	l8.516,10.469l11.16-9.002l-8.694-10.633C357.615,381.256,370.399,347.097,364.791,311.582z M275.335,419.977
	c-50.791,8.018-98.467-26.899-106.486-77.686c-8.018-50.792,26.658-97.745,77.447-106.727h0.003
	c50.79-7.984,98.465,26.899,106.483,77.688C360.801,364.041,326.125,411.958,275.335,419.977z"/>
<path style="fill:#FF5B62;" d="M326.756,427.369l19.471-15.712c2.922-2.358,7.237-1.896,9.595,1.026l58.508,72.508
	c2.358,2.922,1.896,7.234-1.026,9.592l-19.471,15.712c-2.919,2.355-7.234,1.896-9.589-1.026l-58.511-72.508
	c-2.355-2.919-1.896-7.234,1.026-9.592H326.756z"/>
<path style="fill:#FAD24D;" d="M291.047,269.487c-13.102,0-23.974,9.99-26.057,21.967h-62.765v0.161v8.822h3.992v11.977h8.982
	v-6.986h4.99v-4.99h3.992v6.986h6.986v-6.986h33.822c2.083,11.977,12.955,22.007,26.057,22.007
	c14.591,0,26.418-11.887,26.418-26.478C317.466,281.376,305.639,269.487,291.047,269.487z M291.044,312.205
	c-8.96,0-16.223-7.263-16.223-16.223c0-8.96,7.263-16.223,16.223-16.223c8.96,0,16.223,7.263,16.223,16.223
	C307.268,304.943,300.005,312.205,291.044,312.205z"/>
<g>
</g>
<g>
</g>
<g>
</g>
<g>
</g>
<g>
</g>
<g>
</g>
<g>
</g>
<g>
</g>
<g>
</g>
<g>
</g>
<g>
</g>
<g>
</g>
<g>
</g>
<g>
</g>
<g>
</g>
</svg>
