<?xml version="1.0" encoding="iso-8859-1"?>
<!-- Generator: Adobe Illustrator 19.0.0, SVG Export Plug-In . SVG Version: 6.00 Build 0)  -->
<svg version="1.1" id="Layer_1" xmlns="http://www.w3.org/2000/svg" xmlns:xlink="http://www.w3.org/1999/xlink" x="0px" y="0px"
	 viewBox="0 0 512.01 512.01" style="enable-background:new 0 0 512.01 512.01;" xml:space="preserve">
<circle style="fill:#0F7986;" cx="256" cy="256.005" r="256"/>
<path style="fill:#15BDB2;" d="M247.755,59.075c104.208,0,188.686,84.477,188.686,188.686s-84.477,188.686-188.686,188.686
	S59.07,351.97,59.07,247.76S143.552,59.075,247.755,59.075z"/>
<path style="fill:#21D0C3;" d="M247.755,59.075c74.741,0,139.321,43.453,169.878,106.476c4.6,17.108,7.067,35.093,7.067,53.656
	c0,113.853-92.297,206.149-206.154,206.149c-16.942,0-33.403-2.06-49.158-5.916C104.301,389.682,59.07,324.002,59.07,247.76
	C59.07,143.548,143.547,59.075,247.755,59.075z"/>
<path style="fill:#FFFFFF;" d="M365.641,100.44c35.084,28.114,59.915,68.492,67.974,114.647c-0.568-0.877-1.15-2.023-1.732-3.723
	c-3.686,1.21-3.806,1.307-8.157,2.032l-0.19,0.264c-1.732,2.466,0.088,1.422-2.956,3.99c-3.621,3.048-5.981,7.205-10.027,9.672
	c-0.485,4.31,0.36,5.275-0.726,10.402c-0.425,1.889-2.536,6.965-5.016,6.582c-0.785-0.143-4.106-8.374-4.891-10.646
	c-1.33-3.87-2.84-6.725-3.806-11.173c-0.54-2.374-0.91-6.919-1.45-8.517c-2.596,0.383-2.48,2.037-4.956,0.295
	c-1.751-1.261-0.965-2.032-1.935-3.921c-2.051-1.935-4.166-3.87-6.282-5.806c-1.635-0.531-7.917,0.383-10.577,0.097
	c-4.771-0.439-5.192-0.143-8.032-3.967c-5.016,0.245-4.596,2.129-9.486-2.079c-3.201-2.712-2.596-7.062-7.247-4.596
	c-0.18,3.967,1.756,4.846,3.505,6.679c1.266,1.404,2.84,2.374,3.501,4.254c0.065,0.051,0.365,1.838,0.425,2.079
	c4.531,0.295,5.616-1.884,8.092-3.723c2.42,2.273,0.06,2.665,3.566,4.448c2.776,1.404,2.236,0.582,4.046,2.854
	c0.91,3.048-6.222,11.321-8.577,12.822c-1.81,1.16-2.776,0.48-4.406,1.833c-2.415,2.037,0.304,1.742-3.926,3.294
	c-4.531,1.649-9.006,5.127-13.773,5.417c-1.03-2.809-2.055-5.658-3.081-8.512c-3.025-9.723-2.9-5.949-5.981-10.984
	c-1.45-2.18-0.845-3.58-1.815-5.515c-0.665-1.45-1.691-2.079-2.596-3.865c-1.39-2.758-3.016-7.062-6.222-6.628
	c-0.665,2.176,2.96,9.528,3.865,11.321c0.91,1.793,2.355,2.568,2.781,5.131c0.601,3.529-0.12,3.09,1.81,5.459
	c4.046,4.886-0.18,4.018,6.101,8.804c4.711,3.584,3.501,4.647,5.496,9.437c3.081,0.863,12.258-3.243,13.829-2.032
	c1.875,3.334-2.171,8.655-3.201,11.56c-3.381,9.723-9.307,9.579-13.833,17.025c-2.471,4.018-3.626,4.549-5.916,9.39
	c-2.6,5.464,5.256,20.605,0.545,26.946c-1.025,1.45-4.351,2.323-8.517,6.725c-4.411,4.785,0.12,3.963-1.575,11.944
	c-1.325,1.838-2.956,1.935-4.591,3.247c-0.601,1.884-0.12,3.381-1.15,5.704c-1.09,2.809-1.266,1.307-2.84,3.584
	c-1.146,1.788-1.025,2.513-2.355,4.157c-1.146,1.501-1.751,1.93-2.835,2.905c-5.261,4.841-16.554,4.983-17.519,4.305
	c-2.661-2.273-0.845-2.854-1.51-6.046c-0.647-2.809-2.134-5.159-3.381-7.321l-0.13-0.227c-0.601-1.058-1.15-2.079-1.45-3.048
	c-2.176-6.869-1.385-12.087-5.192-19.053c-4.772-9.002,2.656-13.694,2.351-18.77c-0.12-1.353-0.601-2.176-0.726-3.247
	c-0.905-5.607-1.446-10.641-5.192-15.044c-4.111-4.785-3.566-3.095-2.236-10.979c1.691-9.043-2.176-6.725-7.612-6.965
	c-2.665-8.221-7.857-4.213-13.049-1.792c-3.261,1.496-4.471-0.434-8.157,0.097c-8.217,1.113-1.751,4.647-12.748-4.064
	c-4.591-3.63-1.51-1.793-4.226-6.333c-0.905-1.649-3.686-3.825-4.956-5.468c-4.166-5.224,0.789-10.493,0.065-16.494
	c-1.271-11.126-3.081-1.455,3.141-14.9c3.261-7.159,8.217-7.205,9.486-10.402c1.09-2.849,0.36-4.886,2.415-7.496
	c1.815-2.129,4.411-1.695,5.436-5.03c1.446-4.111-1.33-4.642-4.35-4.744c-1.266-4.305-1.266-3.243-0.304-7.205
	c0.545-2.227,0.06-3.294,0.545-5.519c1.206-5.561,10.692-0.042,13.413-2.318c1.266-2.369,1.45-4.688,0-6.965
	c-1.515-2.273-3.501-1.986-4.531-4.162c2.296-1.547,0.601-0.194,2.596-0.633c2.355-0.531,2.051-1.21,4.832-1.737
	c2.476-0.485,4.055-2.758,6.466-4.305c3.441-2.227,1.81-4.213,5.981-4.886c6.707-1.164,2.355-0.97,3.085-7.21
	c1.021-0.383,1.991-0.822,2.956-1.257c2.116,2.758-0.54,1.649,1.995,3.482c0.665-0.383,1.45-0.771,2.176-1.155
	c-0.365-3.007-1.751-2.42-2.656-6.143c-3.326,0.531-4.531,3.334-7.187,2.323c-2.596-0.97-2.721-4.693-2.596-7.787
	c0.965-2.323,5.797-3.58,7.667-4.162c3.025-1.016,2.6-3.048,5.38-5.806c3.626-3.63,0.965,0.046,2.716-4.642
	c3.99-0.148,2.116-0.295,4.471-1.501l0.12-0.046l0.241-0.097c1.39-0.633,3.206-0.775,5.016-1.399
	c6.642-2.227,9.363-1.113,14.193,0.868c3.746,1.552,15.044,1.598,15.889,6.342c-2.716,2.849-5.317,0.771-9.242,1.016
	c0.726,3.672,1.025,3.672,4.351,4.688c0.545-1.742-0.241-1.058,0.665-2.176c1.09,0.241,2.176,0.434,3.261,0.633
	c1.095-3.728,2.36-3.192,6.046-3.63c-0.605-2.568-1.271-1.838,0.12-3.87c3.811,0.388,0.726,0.051,2.596,3.099
	c2.656-0.341,5.256-3.294,8.942-3.677c2.296-0.241,2.176,0.633,5.436,0.291c2.661-0.291,2.536-1.257,5.201-0.143
	c0.965-1.792,0-1.742,2.355-2.176c3.621-0.633,6.767,1.594,10.268,2.079c-2.596-3.192-5.071-2.568-1.87-7.885
	c4.046-0.822,4.411-0.241,6.161,2.809c0.993-0.559,1.418-1.118,1.907-1.404L365.641,100.44z M63.48,207.07
	c8.503-38.673,28.858-72.898,57.075-98.671c2.194,0.763,5.09,0.258,7.27,0.171c0.78-1.45,1.266-2.712,2.656-3.243
	c0.545-0.194,1.21-0.241,2.116-0.194c0.12,0.721,0.304,1.45,0.485,2.176c0,0.051,0.125,0.536,0.065,0.439
	c0.06-0.102,0.12,0.286,0.18,0.434c3.811-2.227,0.605-2.273,2.656-6.286c-3.206-0.633-2.781-0.245-4.776-2.278
	c1.935-2.129,5.677-2.854,8.461-2.656c-0.185,1.935-1.09,1.889-0.36,3.529c2.176-1.353,3.686-4.979,7.187-4.305
	c0.665,0.48,1.455,0.919,2.176,1.353c-1.815,1.695-4.531,1.792-6.887,2.758c-1.03,10.498,3.321,1.695,1.87,8.901
	c2.596-0.194,5.136-2.079,6.101-4.014c-0.965-1.257-2.355-1.257-3.141-2.758c0.61-1.935,1.907-3.399,3.746-4.273
	c1.243-0.591,2.73-0.905,4.411-0.905c19.209,0.143,10.087,1.016,16.009,3.728c1.325,0.577,3.681,0.873,4.471,2.032
	c1.21,1.838,0.06,3.575,1.991,5.03c1.691,1.257,1.935-0.046,4.171,2.758c-0.48,1.594-1.631,3.238-3.986,3.289
	c-3.261,0.046-1.33-2.176-4.836-1.838c0.065,3.289,3.326,4.549,0.3,6.337c-2.656,1.598-0.97-0.577-2.96,0.536
	c-0.06,0.046-0.245,0.143-0.304,0.194c-0.12,0.097-0.241,0.241-0.304,0.337c-0.36,0.388-0.665,0.726-0.965,1.067
	c-4.832-1.311-3.926-0.726-6.827-3.916c-1.09-1.21-1.266-1.501-3.201-1.353c-1.206,0.042-2.776,0.573-3.93-0.485
	c2.36-2.951,3.505-0.097,6.946-1.838c0.605-0.295,4.411-3.243,5.016-3.916c-1.03-2.323-0.125-0.388-1.631-1.889
	c-3.385-3.431-4.355-2.568-8.942-2.568c-2.153,2.475-3.76,5.533-6.101,6.878c-1.413,0.812-3.095,0.998-5.321,0.046
	c1.03,4.162,3.681,0.97,3.926,6c-1.751-0.341-2.661-1.215-4.471-0.582c-3.865,1.45-0.42,1.307-0.12,2.079
	c0,0.046,1.81,0.241,0,0.919c-2,0.721-0.304-0.388-4.171-2.661c0.54-0.97,1.09-1.977,1.631-3.002
	c-3.141,0.97-7.067,2.517-10.752,4.305c-4.171,2.079-8.101,4.452-10.453,6.628c-0.06,3.63,0.605,1.21,0.97,5.519
	c5.616,0.337,3.806,2.028,9.423,3.626c1.086,0.295,2.475,0.582,4.171,0.873c0,2.712-2.42,4.739-0.73,7.547
	c3.93,2.753,4.051-2.614,5.016-6.046c13.297-2.781,6.892-6.688,10.328-14c0.513-1.095,1.248-2.259,2.3-3.515
	c1.025,0.046,5.192,0.485,6.097,0.679c3.021,0.531,1.39,1.257,4.656,2.707c-0.065,2.614-1.39,5.999,2.475,5.371
	c2.96-0.531,2.3-2.854,5.921-3.436c1.631,3.825,1.206,5.468,1.93,10.059c8.702,3.39,4.832,6.143,3.141,12.485
	c1.09,0.531,2.236,1.016,3.385,1.496c-0.06,1.838-0.125,3.63-0.18,5.422c-0.18,0-9.307-1.991-9.912-2.176
	c1.39-3.972,3.926-4.014,5.561-8.078c-3.261,0.577-3.025,1.594-5.38,2.318c-2.111,0.633-3.746,0.194-5.981,0.485
	c-0.785,2.61-0.06-2.278,0.185,1.058c0.12,1.261,0.726,0.051-0.125,1.404c-3.021-1.404-1.991-4.693-7.612-1.649
	c1.271,0.582,2.536,1.113,3.865,1.649c-0.18,3.718-0.48,0.914-1.266,3.385c-1.935,6.337,5.256,2.415,7.127,2.079
	c-0.485,3.339-2.54,3.339-5.441,4.259c-3.196,0.97-4.166,2.277-6.707,2.859c0-3.972-0.601-0.633,1.15-3.39
	c-2.54,0.241-4.411,1.399-6.827,2.42l-0.241,0.093c-3.104,1.266-3.575,1.455-3.93,5.422c-2.656,0.817-5.737,1.742-7.612,3.681
	c-1.87,1.788-3.746,3.575-5.561,5.321c-0.18,0.143-0.304,0.291-0.42,0.383c0.665,4.983,0,5.081-3.025,7.02
	c-2.536,1.64-3.381,1.594-5.737,3.672c-7.551,6.776-3.926,3.626-3.505,15.288c-1.57-0.48-3.081-1.016-4.526-1.547
	c-1.15-7.741,0.42-5.178-5.802-6.965c-6.707-1.935-5.802,1.353-8.577,1.935c-3.081,0.675-4.596-2.809-9.066,0.097
	c-2.475,1.691-4.832,2.804-5.436,5.802c-0.726,3.63-2.355,6.286-2.116,10.309c0.425,10.887,10.328,11.51,12.868,6.429
	c1.691-3.381,1.271-5.224,6.767-4.35c0.545,2.905-0.304,5.03-1.03,7.256c-0.48,1.307-1.81,3.672-1.146,5.468
	c3.926,1.594,4.046-1.404,9.242,1.691c0.365,5.178-2.355,10.984,1.631,13.981c3.081,2.273,3.261,0.241,5.981-0.241
	c3.025-0.531,2.48,1.353,5.261,1.793c1.57-1.935,0.905-0.726,1.935-3.099c1.81-4.106,2.296-2.176,6.586-4.688
	c0.42-0.241,0.78-0.485,1.21-0.775c0.48,1.016,1.025,1.981,1.506,2.951c3.146-3.728,3.505-0.097,7.131,0.919
	c1.561,0.429,2.67,0.582,3.524,0.591c2.637,0.037,2.905-1.243,6.498,0.032c0.425,0.199,0.97,0.341,1.455,0.485
	c0.06,0,0.241,0.097,0.241,0.194c0.065,0.046,0.241,0.194,0.3,0.245c0.601,0.675,0.665,1.353,1.15,2.079
	c2.48,2.369,4.956,4.744,7.372,7.062c4.772,1.889,4.772-1.649,10.207,3.626c2.296,2.176,1.266,2.134,2.536,4.937
	c0.185,0.439,0.54,0.868,0.785,1.404c0.48,1.307,1.025,2.559,1.57,3.816c2.475,3.247,5.857,1.215,9.302,4.549
	c1.991,1.935,0.485,1.353,4.891,2.129c6.827,1.113,4.171,0.485,9.367,4.406c1.991,1.45,2.471,0.628,4.347,1.884
	c2.596,3.63,1.93,7.547-0.241,10.739c-6.707,9.773-4.411,8.175-4.716,15.916c-0.245,4.448-1.51,13.639-5.681,14.752
	c-15.163,4.259-6.347,7.21-10.328,14.711c-1.15,2.134-1.995,2.661-2.721,4.355c-3.016,7.057-0.905,9.432-9.847,7.838
	c0.845,1.496,0.3,0.48,1.15,1.833c2.651,4.111,3.081,7.215-2.36,8.221c-4.531,0.873-2.596,0-3.021,5.03
	c-1.756,0.726-2.536,0-3.686,1.16c1.57,2.905,0.12,0.485,2.781,2.134c-0.485,1.594-0.85,3.146-1.271,4.688
	c-1.025,3.774-1.325,0.295-1.691,4.693c1.57,0.721,2.656,0.577,4.041,2.471c-0.18,1.45-1.631,5.413-2.051,7.69
	c2.236,3.339,4.051,6.918,8.822,7.261c-0.065,2.804,0.601,2.513-1.815,3.09c-2.055,0.485-6.402-1.45-8.221-2.415
	c-3.141-1.695-6.041-3.921-8.152-7.113c-1.206-1.792-0.726-0.919-1.995-2.61c-2.296-2.951-1.385-4.31-2.051-6.291
	c-0.365-1.16-2.236-2.415-1.45-6.189c0.18-1.062,1.875-6.143-0.18-5.27c-2.055,0.822,1.57,0.48-1.271,1.838
	c-0.665-1.838-1.21-4.549-1.57-6.822c-0.726-3.825-1.631-3.967-2.055-6.286c-0.905-5.371,1.39-5.953-1.15-14.905
	c-1.668-5.921-0.998-19.939-2.758-27.131c-0.281-1.146-0.624-2.12-1.049-2.859c-1.631-2.707-5.616-3.963-8.817-6.143
	c-0.185-0.042-0.304-0.097-0.36-0.194c-4.411-3.095-8.581-15.237-12.087-19.782c-1.631-2.18-2.656-1.215-3.381-4.647
	c-0.785-3.146,0.42-2.61,1.45-5.229c-5.376-9.866,6.946-9.718,4.411-21.574c-0.54-2.176-2.111-5.224-3.441-6.189
	c-2.536,1.113-1.33,1.737-2.661,3.865c-2.055-1.16-4.106-2.323-6.101-3.478c-6.226-6-2.9-1.649-4.651-5.565
	c-3.746-8.221-7.312-3.626-11.782-7.686c-2-1.695-2.36-4.36-5.681-3.87c-5.011,0.675-2.236,1.45-7.431-0.974
	c-4.411-2.079-9.002-4.498-12.082-7.303c-0.162-5.876,1.626-5.307-2.84-10.729L63.48,207.07z M122.633,106.542
	c1.141-1.011,2.296-2.014,3.464-2.997l0.093,0.19c0.241,0.383,0.42,0.383,0.665,1.399c-3.062,0.749-3.058,1.252-4.226,1.404
	L122.633,106.542z M284.11,162.636c1.672,1.067,3.718,1.88,4.956,2.965c1.57,4.305-0.42,2.227,2.656,6.725
	c1.751,2.415,1.39,4.157,3.201,5.51c3.326-0.434,0.425,0.536,2.475-1.496c0.365-0.383,1.39-1.598,1.691-2.079
	c-1.086-1.649-1.751-1.793-2.711-3.487c3.742-4.979,5.376-2.129,6.282,1.164c2.36,9.14,5.981,6.48,9.006,6.041
	c3.081-0.434,0.42,0.102,3.201,0.822c2.656,0.679,1.385,0,3.261-0.48c6.342-1.552,1.455,10.739,0.789,12.092
	c-3.441,0.434-2.781-0.337-5.261-0.582c-5.011-0.531,0.304,3.007-11.537-0.873c-11.358-3.626-8.942-4.448-11.298,3.436
	c-2.596-0.194-2.471-0.679-4.886-1.496c-0.924-0.351-1.455-0.54-1.815-0.647l-0.12-0.037c-0.965-0.337,0-0.042-1.991-1.93
	c-1.756-1.649-6.041-2.032-9.066-3.63c0-2.61,2.296-4.785-0.485-7.885c-0.905-0.241-13.773,0.295-15.824,0.726
	c-4.166,0.873-4.895,4.401-10.632,3.63c-3.141-0.439-2.051-0.143-2.84-1.986c1.03-1.016,0-0.485,1.76-1.113
	c0.661-0.241,0.905-0.143,1.57-0.241c9.302-1.404,4.526-6.101,10.328-10.595c4.836-3.87,1.03,0.046,3.686-4.647
	c3.266-0.291,2.84,1.302,5.621-0.046c2.301-1.16,1.57-2.176,4.832-2.278c2.9,2.905,2.296,4.647,7.006,6.869
	c1.87,0.877,3.021,1.358,4.226,2.956c2.176,3.095,0.304,2.079,1.15,4.208c0.18-0.097,0.416-0.199,0.661-0.291l0.12-0.06
	c2.54-1.215-1.271-1.598,2.84-5.219c-1.206-0.873-2.083-1.483-2.84-1.917l-0.12-0.069c-3.201-1.884-1.93-0.143-6.041-5.27
	c-1.09-1.455-1.39-1.547-1.325-3.774c2.956-0.531,3.501,1.598,6.161,3.967c0.36,0.341,0.785,0.633,1.206,0.919l0.12,0.083
	L284.11,162.636z M348.629,292.877c-2.651,1.353-3.021,4.452-5.011,6.189c-2.176,1.986-5.076,1.067-5.921,4.744
	c-1.086,4.591,1.815,3.192-1.39,9.191c-1.146,2.222-1.206,7.783,0.545,9.437c5.256,5.076,8.097-7.741,9.302-11.755
	c0.905-2.854,1.756-6.092,2.721-8.757c0.97-2.854,2.355-5.368-0.245-9.043V292.877z M339.932,157.912
	c0.42,5.907,3.926,8.18,6.406,10.887c-0.304,2.809-0.97,2.079-0.91,6c2.96,2.134,5.131,3.431,9.002,2.374
	c0.54-4.739-0.965-4.503-2.415-7.741c0.241-0.388,0.905-0.873,1.025-0.97c1.09-1.45,0.545,0.577,1.09-1.889
	c-2.835-0.914-7.432-3.82-7.787-7.639c1.385-1.109,0.965-0.439,1.991-1.109c2.236-1.455,0.545,0.766,1.875-1.695
	c-1.146-2.222-2.415-2.614-5.192-1.501c-1.21,0.485-4.411,2.758-5.076,3.289L339.932,157.912z M315.222,159.464
	c-1.87-2.61-1.751-3.921-5.376-4.014c-1.445,1.552-3.141,3.87-3.926,6.24c-1.21,3.58-0.365,1.113-0.245,4.983
	c-0.06,0.143,0,0.341,0,0.485c-0.06,2.318-0.605-0.439-0.245,1.695c2.84-0.582,0.665-0.536,2.781-1.215
	c1.995-0.679,8.097-2.517,9.852-2.079c4.166,0.97,7.672,4.259,12.383,0.97c-0.245-4.208-5.321-5.806-8.822-7.644
	c0.185-3.865,1.21-0.817,0.965-4.545c-1.21-0.046-1.935-0.241-3.081,0.241c-2.716,1.21-1.21,1.547-1.21,1.981
	c0.12,2.079,2.721-0.434-0.06,2.134c-0.785,0.675-2.055,0.675-3.021,0.771L315.222,159.464z M244.656,130.148
	c-0.116,6.771,2.236,4.498,4.471,7.838c-1.025,2.854-1.206,0.633-2.351,3.58c-1.03,2.471,0.241,0.245-0.425,4.549
	c1.756,0.097,4.347-0.531,6.646-0.726c3.266-0.291,3.206-0.582,4.351-3.921c-1.81-2.222-3.626-4.448-5.496-6.67
	c-2.36-3.584,0-1.118-0.726-4.115c-0.545-1.067-1.03-2.125-1.51-3.192c-3.141,1.067-2.84,0.775-4.956,2.661L244.656,130.148z"/>
<circle style="fill:#ECF0F1;" cx="412.983" cy="390.243" r="99.027"/>
<path style="fill:#FFFFFF;" d="M412.978,301.787c48.853,0,88.458,39.606,88.458,88.458s-39.606,88.458-88.458,88.458
	s-88.458-39.606-88.458-88.458C324.519,341.387,364.126,301.787,412.978,301.787z"/>
<path style="fill:#FAD24D;" d="M372.925,360.805h80.099c6.277,0,11.404,5.127,11.404,11.404v69.461H361.525v-69.461
	C361.525,365.936,366.652,360.805,372.925,360.805z"/>
<path style="fill:#828282;" d="M380.444,338.815v21.99h12.812v-22.493c0-14.965,39.44-15.288,39.44,0v22.493h12.812v-21.99
	C445.508,305.56,380.444,305.56,380.444,338.815z"/>
<g>
	<path style="fill:#EDB937;" d="M412.978,391.635c4.577,0,8.286,3.709,8.286,8.286c0,3.312-1.94,6.166-4.744,7.491v17.473h-7.08
		v-17.473c-2.804-1.325-4.744-4.185-4.744-7.491c0-4.577,3.709-8.286,8.286-8.286H412.978z"/>
	<rect x="361.524" y="441.662" style="fill:#EDB937;" width="102.899" height="5.603"/>
</g>
<g>
</g>
<g>
</g>
<g>
</g>
<g>
</g>
<g>
</g>
<g>
</g>
<g>
</g>
<g>
</g>
<g>
</g>
<g>
</g>
<g>
</g>
<g>
</g>
<g>
</g>
<g>
</g>
<g>
</g>
</svg>
