<?xml version="1.0" encoding="iso-8859-1"?>
<!-- Generator: Adobe Illustrator 19.0.0, SVG Export Plug-In . SVG Version: 6.00 Build 0)  -->
<svg version="1.1" id="Layer_1" xmlns="http://www.w3.org/2000/svg" xmlns:xlink="http://www.w3.org/1999/xlink" x="0px" y="0px"
	 viewBox="0 0 511.998 511.998" style="enable-background:new 0 0 511.998 511.998;" xml:space="preserve">
<circle style="fill:#FAD24D;" cx="255.999" cy="255.999" r="255.999"/>
<path style="fill:#FFFFFF;" d="M89.572,61.491h332.855h49.549c6.004,0,10.917,4.914,10.917,10.917v64.959v237.268
	c-95.571,182.405-358.215,182.405-453.784-0.002V137.37V72.409c0-6.004,4.912-10.917,10.917-10.917h49.549L89.572,61.491z"/>
<g>
	<path style="fill:#ECF0F1;" d="M65.656,390.689h81.948v4.992H65.656V390.689z M65.656,415.016h58.047v4.992H65.656V415.016z
		 M65.656,402.852h81.948v4.992H65.656V402.852z"/>
	<path style="fill:#ECF0F1;" d="M215.025,390.689h81.948v4.992h-81.948L215.025,390.689L215.025,390.689z M215.025,415.016h58.047
		v4.992h-58.047V415.016z M215.025,402.852h81.948v4.992h-81.948L215.025,402.852L215.025,402.852z"/>
</g>
<path style="fill:#FAD24D;" d="M203.036,289.015h105.928v84.207H203.036V289.015z"/>
<path style="fill:#21D0C3;" d="M53.668,289.015h105.928v84.207H53.668V289.015z"/>
<path style="fill:#828282;" d="M40.023,61.491h431.951c6.004,0,10.917,4.912,10.917,10.917v21.83H29.106v-21.83
	C29.106,66.403,34.018,61.491,40.023,61.491z"/>
<path style="fill:#FFFFFF;" d="M231.13,72.798h219.201c1.62,0,2.932,1.312,2.932,2.932v5.441c0,1.62-1.312,2.932-2.932,2.932H231.13
	c-1.62,0-2.932-1.312-2.932-2.932V75.73C228.197,74.11,229.51,72.798,231.13,72.798z"/>
<circle style="fill:#21D0C3;" cx="50.881" cy="77.129" r="6.286"/>
<circle style="fill:#FAD24D;" cx="75.692" cy="77.129" r="6.286"/>
<circle style="fill:#FF5B62;" cx="100.503" cy="77.129" r="6.286"/>
<rect x="53.668" y="106.242" style="fill:#ECF0F1;" width="404.668" height="133.489"/>
<path style="fill:#828282;" d="M378.02,263.188h12.52v-34.921h-12.52V263.188z"/>
<path style="fill:#FF5B62;" d="M366.057,228.267h36.446c2.117,0,3.849,1.733,3.849,3.849v15.919h-44.144v-15.919
	C362.208,230,363.939,228.267,366.057,228.267L366.057,228.267z"/>
<circle style="fill:#21D0C3;" cx="384.278" cy="383.719" r="127.72"/>
<circle style="fill:#ECF0F1;" cx="384.278" cy="383.719" r="117.121"/>
<circle style="fill:#FFFFFF;" cx="384.278" cy="383.719" r="112.061"/>
<path style="fill:#21D0C3;" d="M350.517,284.851l2.965-0.963l2.635,8.1l-2.968,0.963L350.517,284.851z M418.045,482.586
	l-2.965,0.963l-2.633-8.105l2.965-0.963l2.633,8.103V482.586z M483.149,349.955l0.963,2.965l-8.1,2.633l-0.963-2.965
	L483.149,349.955z M415.08,283.887l2.965,0.963l-2.633,8.1l-2.965-0.963L415.08,283.887z M444.421,298.291l2.522,1.832l-5.007,6.893
	l-2.524-1.832L444.421,298.291z M467.876,321.057l1.832,2.522l-6.893,5.009l-1.832-2.524L467.876,321.057z M484.112,414.518
	l-0.963,2.965l-8.1-2.633l0.963-2.968L484.112,414.518z M469.707,443.859l-1.832,2.524l-6.893-5.009l1.832-2.525L469.707,443.859z
	 M446.942,467.314l-2.522,1.834l-5.009-6.893l2.525-1.834L446.942,467.314z M353.48,483.551l-2.965-0.963l2.633-8.103l2.968,0.963
	l-2.635,8.105L353.48,483.551L353.48,483.551z M324.139,469.147l-2.524-1.834l5.009-6.893l2.524,1.834L324.139,469.147z
	 M300.684,446.381l-1.834-2.524l6.893-5.009l1.834,2.524L300.684,446.381z M285.41,417.483l-0.963-2.965l8.105-2.635l0.963,2.968
	l-8.103,2.633L285.41,417.483L285.41,417.483z M284.447,352.92l0.963-2.965l8.103,2.633l-0.963,2.965l-8.105-2.633H284.447z
	 M298.851,323.579l1.834-2.522l6.893,5.007l-1.834,2.524L298.851,323.579z M321.617,300.124l2.524-1.832l5.009,6.893l-2.524,1.832
	L321.617,300.124z"/>
<path style="fill:#828282;" d="M380.968,313.384l3.543-3.541l3.461,3.541v70.487h-7.004L380.968,313.384L380.968,313.384z"/>
<path style="fill:#FF5B62;" d="M319.939,434.567l-4.827,0.946l2.28-4.34l63.305-47.453l2.544,3.395l-63.305,47.453L319.939,434.567z
	"/>
<path style="fill:#828282;" d="M448.913,379.864l4.03,3.512l-3.977,3.494l-64.377,0.6l-0.053-7.004l64.377-0.6V379.864z"/>
<circle style="fill:#ECF0F1;" cx="384.278" cy="383.719" r="11.794"/>
<g>
	<path style="fill:#FF5B62;" d="M467.798,381.014h16.406v5.406h-16.406V381.014z M284.356,381.014h16.406v5.406h-16.406V381.014z"/>
	<path style="fill:#FF5B62;" d="M381.577,300.2v-16.406h5.406V300.2H381.577z M381.577,483.641v-16.406h5.406v16.406
		L381.577,483.641L381.577,483.641z"/>
</g>
<circle style="fill:#21D0C3;" cx="384.278" cy="383.719" r="9.369"/>
<g>
</g>
<g>
</g>
<g>
</g>
<g>
</g>
<g>
</g>
<g>
</g>
<g>
</g>
<g>
</g>
<g>
</g>
<g>
</g>
<g>
</g>
<g>
</g>
<g>
</g>
<g>
</g>
<g>
</g>
</svg>
