<?xml version="1.0" encoding="iso-8859-1"?>
<!-- Generator: Adobe Illustrator 19.0.0, SVG Export Plug-In . SVG Version: 6.00 Build 0)  -->
<svg version="1.1" id="Layer_1" xmlns="http://www.w3.org/2000/svg" xmlns:xlink="http://www.w3.org/1999/xlink" x="0px" y="0px"
	 viewBox="0 0 511.997 511.997" style="enable-background:new 0 0 511.997 511.997;" xml:space="preserve">
<circle style="fill:#21D0C3;" cx="255.999" cy="255.999" r="255.999"/>
<circle style="fill:#D9DADA;" cx="191.096" cy="100.034" r="9.262"/>
<circle style="fill:#B3B3B3;" cx="191.096" cy="100.034" r="7.404"/>
<circle style="fill:#E6E6E6;" cx="191.096" cy="100.034" r="2.846"/>
<path style="fill:#666666;" d="M172.62,73.861h184.166c2.907,0,5.265,2.357,5.265,5.265v353.746c0,2.907-2.357,5.265-5.265,5.265
	H172.62c-2.907,0-5.265-2.357-5.265-5.265V79.126C167.355,76.218,169.713,73.861,172.62,73.861z"/>
<path style="fill:#ECF0F1;" d="M180.688,123.021h168.027c2.257,0,4.087,1.829,4.087,4.087v257.781c0,2.257-1.829,4.087-4.087,4.087
	H180.688c-2.257,0-4.087-1.829-4.087-4.087V127.108C176.601,124.851,178.431,123.021,180.688,123.021z"/>
<g>
	<path style="fill:#C0C1C4;" d="M220.482,96.351h88.432c2.031,0,3.678,1.647,3.678,3.678v0.003c0,2.031-1.647,3.678-3.678,3.678
		h-88.432c-2.031,0-3.678-1.647-3.678-3.678v-0.003C216.804,97.997,218.451,96.351,220.482,96.351z"/>
	<circle style="fill:#C0C1C4;" cx="264.701" cy="415.376" r="12.811"/>
</g>
<path style="fill:#FAD24D;" d="M117.754,134.57c37.963-13.017,79.294,7.203,92.311,45.166c6.741,19.656,4.567,40.213-4.364,57.279
	l29.031,35.812l-38.535-21.86c-8.115,9.364-18.733,16.774-31.298,21.081c-37.963,13.017-79.291-7.203-92.311-45.166
	C59.571,188.919,79.792,147.589,117.754,134.57z"/>
<circle style="fill:#FF5B62;" cx="360.414" cy="305.591" r="53.336"/>
<path style="fill:#FFFFFF;" d="M365.109,321.887c-1.928,2.233-4.084,4.024-6.484,5.377c-2.384,1.35-4.785,2.017-7.184,2.017
	c-2.644,0-5.207-0.773-7.714-2.305c-2.492-1.548-4.509-3.918-6.075-7.121c-1.563-3.206-2.337-6.728-2.337-10.552
	c0-4.722,1.215-9.445,3.628-14.182c2.413-4.722,5.421-8.276,9.004-10.66c3.583-2.368,7.077-3.554,10.445-3.554
	c2.581,0,5.041,0.669,7.395,2.02c2.339,1.35,4.359,3.415,6.043,6.164l1.563-6.909h7.926l-6.408,29.883
	c-0.897,4.163-1.335,6.455-1.335,6.893c0,0.805,0.301,1.503,0.91,2.08s1.35,0.865,2.201,0.865c1.579,0,3.646-0.897,6.196-2.702
	c3.386-2.368,6.075-5.542,8.047-9.537c1.972-3.979,2.959-8.079,2.959-12.315c0-4.949-1.275-9.566-3.812-13.847
	c-2.536-4.297-6.332-7.73-11.374-10.311c-5.025-2.565-10.599-3.855-16.687-3.855c-6.953,0-13.317,1.624-19.056,4.857
	c-5.755,3.25-10.219,7.896-13.378,13.955c-3.174,6.059-4.753,12.556-4.753,19.497c0,7.258,1.579,13.498,4.737,18.738
	c3.174,5.254,7.743,9.125,13.726,11.63c5.983,2.505,12.603,3.751,19.877,3.751c7.791,0,14.303-1.306,19.557-3.932
	c5.254-2.613,9.188-5.8,11.798-9.553h8.018c-1.519,3.114-4.116,6.303-7.791,9.537c-3.675,3.234-8.047,5.8-13.12,7.683
	c-5.073,1.883-11.192,2.825-18.329,2.825c-6.592,0-12.664-0.85-18.222-2.536c-5.574-1.687-10.309-4.223-14.227-7.607
	c-3.918-3.402-6.865-7.305-8.853-11.706c-2.492-5.603-3.738-11.646-3.738-18.132c0-7.213,1.49-14.106,4.448-20.651
	c3.63-8.018,8.777-14.167,15.442-18.435c6.665-4.268,14.744-6.392,24.25-6.392c7.366,0,13.986,1.503,19.846,4.509
	c5.862,3.006,10.494,7.486,13.865,13.441c2.885,5.118,4.326,10.691,4.326,16.703c0,8.595-3.019,16.218-9.065,22.883
	c-5.406,5.983-11.297,8.973-17.705,8.973c-2.051,0-3.691-0.32-4.949-0.942c-1.26-0.624-2.188-1.519-2.778-2.689
	c-0.396-0.745-0.669-2.035-0.85-3.855h0.019V321.887z M343.516,309.861c0,4.068,0.97,7.229,2.901,9.476
	c1.928,2.264,4.129,3.386,6.634,3.386c1.655,0,3.402-0.501,5.254-1.49c1.836-1.002,3.599-2.473,5.27-4.433
	c1.684-1.959,3.051-4.448,4.116-7.457c1.078-3.006,1.608-6.027,1.608-9.065c0-4.024-1.002-7.169-3.006-9.386
	c-2.004-2.233-4.448-3.341-7.319-3.341c-1.899,0-3.691,0.485-5.377,1.442c-1.671,0.97-3.295,2.521-4.873,4.661
	c-1.566,2.125-2.84,4.722-3.783,7.791c-0.957,3.051-1.427,5.862-1.427,8.412L343.516,309.861z"/>
<g>
	<path style="fill:#C0C1C4;" d="M238.043,164.935H342.21v4.234H238.043V164.935z M238.043,193.218h67.209v4.234h-67.209V193.218z
		 M238.043,179.077H342.21v4.231H238.043V179.077z"/>
	<path style="fill:#C0C1C4;" d="M186.27,298.731h104.167v4.234H186.27V298.731z M186.27,327.015h67.209v4.234H186.27V327.015z
		 M186.27,312.874h104.167v4.231H186.27V312.874z"/>
</g>
<path style="fill:#FFFFFF;" d="M137.636,253.049v-9.977c-4.97-0.625-9.012-1.737-12.131-3.344c-3.119-1.605-5.8-4.213-8.071-7.785
	c-2.267-3.591-3.573-7.955-3.947-13.133l9.977-1.928c0.773,5.385,2.133,9.336,4.1,11.848c2.797,3.552,6.162,5.534,10.072,5.951
	v-31.314c-4.1-1.057-8.278-2.797-12.545-5.194c-3.174-1.758-5.613-4.215-7.332-7.35c-1.721-3.156-2.571-6.71-2.571-10.697
	c0-7.085,2.513-12.832,7.52-17.233c3.344-2.948,8.334-4.764,14.928-5.424v-4.764h5.896v4.764c5.766,0.548,10.337,2.269,13.718,5.123
	c4.328,3.628,6.935,8.616,7.822,14.946l-10.203,1.59c-0.585-3.95-1.812-6.993-3.683-9.091c-1.851-2.117-4.404-3.494-7.654-4.176
	v28.722c5.007,1.282,8.315,2.285,9.939,2.985c3.098,1.361,5.613,3.024,7.559,4.989c1.964,1.946,3.457,4.271,4.514,6.972
	c1.039,2.684,1.571,5.613,1.571,8.748c0,6.898-2.193,12.643-6.576,17.27c-4.385,4.611-10.051,7.066-17.008,7.407v10.09h-5.896v0.005
	H137.636z M137.636,165.747c-3.855,0.585-6.916,2.135-9.128,4.669c-2.23,2.513-3.344,5.479-3.344,8.919
	c0,3.399,0.944,6.253,2.832,8.54c1.891,2.288,5.102,4.026,9.637,5.196v-27.323H137.636z M143.534,234.68
	c3.874-0.472,7.066-2.154,9.597-5.044c2.515-2.872,3.78-6.444,3.78-10.678c0-3.628-0.886-6.518-2.681-8.729
	c-1.796-2.191-5.369-3.968-10.697-5.349v29.8H143.534z"/>
<circle style="fill:#C0C1C4;" cx="193.491" cy="100.553" r="4.215"/>
<g>
</g>
<g>
</g>
<g>
</g>
<g>
</g>
<g>
</g>
<g>
</g>
<g>
</g>
<g>
</g>
<g>
</g>
<g>
</g>
<g>
</g>
<g>
</g>
<g>
</g>
<g>
</g>
<g>
</g>
</svg>
