<?xml version="1.0" encoding="iso-8859-1"?>
<!-- Generator: Adobe Illustrator 19.0.0, SVG Export Plug-In . SVG Version: 6.00 Build 0)  -->
<svg version="1.1" id="Layer_1" xmlns="http://www.w3.org/2000/svg" xmlns:xlink="http://www.w3.org/1999/xlink" x="0px" y="0px"
	 viewBox="0 0 512 512" style="enable-background:new 0 0 512 512;" xml:space="preserve">
<circle style="fill:#FAD24D;" cx="256" cy="255.999" r="255.999"/>
<path style="fill:#828282;" d="M99.89,96.962h312.221v361.923C368.9,492.183,314.769,512,255.999,512S143.098,492.185,99.89,458.888
	V96.964L99.89,96.962L99.89,96.962z"/>
<path style="fill:#FFFFFF;" d="M124.55,110h262.901v365.702C349.026,498.743,304.065,512,256.001,512s-93.025-13.258-131.451-36.296
	L124.55,110L124.55,110z"/>
<path style="fill:#ED4C54;" d="M250.273,47.193h11.459c7.091,0,12.892,5.799,12.892,12.89v29.724h-37.24V60.082
	c0-7.091,5.801-12.89,12.892-12.89H250.273z M256.001,54.757c5.689,0,10.295,4.608,10.295,10.297
	c0,5.686-4.608,10.295-10.295,10.295c-5.687,0-10.295-4.608-10.295-10.295C245.707,59.366,250.315,54.757,256.001,54.757z"/>
<path style="fill:#FF5B62;" d="M206.17,83.136h99.666c5.678,0,10.321,4.643,10.321,10.323v28.564H195.849V93.459
	C195.849,87.779,200.492,83.136,206.17,83.136z"/>
<g>
	<path style="fill:#C9CACC;" d="M218.622,171.919h146.445v5.126H218.622V171.919z M218.622,196.156H322.1v5.126H218.622
		L218.622,196.156L218.622,196.156z M218.622,184.039h146.445v5.126H218.622V184.039z"/>
	<path style="fill:#C9CACC;" d="M218.622,269.264h146.445v5.126H218.622V269.264z M218.622,293.503H322.1v5.126H218.622
		L218.622,293.503L218.622,293.503z M218.622,281.384h146.445v5.126H218.622V281.384z"/>
	<path style="fill:#C9CACC;" d="M218.622,366.609h146.445v5.126H218.622V366.609z M218.622,390.846H322.1v5.126H218.622
		L218.622,390.846L218.622,390.846z M218.622,378.729h146.445v5.126H218.622V378.729z"/>
</g>
<rect x="435.119" y="59.005" style="fill:#FFFFFF;" width="24.923" height="232.385"/>
<g>
	<path style="fill:#21D0C3;" d="M447.591,340.891l12.447-49.501h-24.919L447.591,340.891z"/>
	<path style="fill:#21D0C3;" d="M440.231,36.332h14.693c4.041,0,7.347,3.893,7.347,8.652v108.031h-29.384V44.983
		c0-4.758,3.306-8.652,7.347-8.652L440.231,36.332L440.231,36.332z"/>
</g>
<g>
	<path style="fill:#828282;" d="M447.082,344.465h1.039l4.143-22.135h-9.294L447.082,344.465z"/>
	<path style="fill:#828282;" d="M432.896,54.973l35.908,0.277l2.26,0.018v2.644v80.464v0.824l-0.417,0.702l-3.402,5.728
		c-1.744,2.661-5.379,0.62-3.704-3.049l2.987-5.027V60.556l-33.65-0.26l0.02-5.323C432.897,54.973,432.896,54.973,432.896,54.973z"
		/>
</g>
<path style="fill:#21D0C3;" d="M152.095,187.075c-0.735-0.873-0.622-2.176,0.251-2.912c0.873-0.735,2.176-0.622,2.912,0.251
	l7.32,8.709l20.018-17.546c0.86-0.752,2.168-0.666,2.919,0.194c0.752,0.86,0.666,2.168-0.197,2.919l-21.601,18.935l-0.002-0.002
	l-0.031,0.027c-0.873,0.735-2.176,0.622-2.912-0.252l-8.678-10.325V187.075z"/>
<path style="fill:#FAD24D;" d="M168.82,157.256c8.103,0,15.439,3.286,20.749,8.594c5.31,5.31,8.594,12.647,8.594,20.749
	s-3.286,15.439-8.594,20.749c-5.31,5.31-12.647,8.594-20.749,8.594c-8.103,0-15.439-3.286-20.749-8.594
	c-5.31-5.31-8.594-12.647-8.594-20.749s3.286-15.439,8.594-20.749C153.379,160.542,160.716,157.256,168.82,157.256z
	 M186.806,168.613c-4.604-4.604-10.965-7.45-17.987-7.45c-7.024,0-13.386,2.848-17.987,7.45c-4.604,4.604-7.45,10.965-7.45,17.987
	c0,7.024,2.848,13.386,7.45,17.987c4.604,4.604,10.965,7.45,17.987,7.45c7.024,0,13.386-2.848,17.987-7.45
	c4.604-4.604,7.45-10.965,7.45-17.987C194.257,179.576,191.408,173.215,186.806,168.613z"/>
<path style="fill:#21D0C3;" d="M152.095,284.418c-0.735-0.873-0.622-2.176,0.251-2.912c0.873-0.735,2.176-0.622,2.912,0.252
	l7.32,8.709l20.018-17.546c0.86-0.752,2.168-0.666,2.919,0.194c0.752,0.86,0.666,2.168-0.197,2.919l-21.601,18.935l-0.002-0.002
	l-0.031,0.026c-0.873,0.735-2.176,0.622-2.912-0.252l-8.678-10.325V284.418z"/>
<path style="fill:#FAD24D;" d="M168.82,254.602c8.103,0,15.439,3.286,20.749,8.594c5.31,5.31,8.594,12.647,8.594,20.749
	c0,8.102-3.286,15.439-8.594,20.749c-5.31,5.31-12.647,8.594-20.749,8.594c-8.103,0-15.439-3.286-20.749-8.594
	c-5.31-5.31-8.594-12.647-8.594-20.749c0-8.102,3.286-15.439,8.594-20.749C153.379,257.887,160.716,254.602,168.82,254.602z
	 M186.806,265.96c-4.604-4.604-10.965-7.45-17.987-7.45c-7.024,0-13.386,2.848-17.987,7.45c-4.604,4.604-7.45,10.965-7.45,17.987
	c0,7.024,2.848,13.386,7.45,17.987c4.604,4.604,10.965,7.45,17.987,7.45c7.024,0,13.386-2.848,17.987-7.45
	c4.604-4.604,7.45-10.965,7.45-17.987C194.257,276.922,191.408,270.56,186.806,265.96z"/>
<path style="fill:#21D0C3;" d="M152.095,381.765c-0.735-0.873-0.622-2.176,0.251-2.912c0.873-0.735,2.176-0.622,2.912,0.251
	l7.32,8.709l20.018-17.547c0.86-0.752,2.168-0.666,2.919,0.194c0.752,0.86,0.666,2.168-0.197,2.919l-21.601,18.935l-0.002-0.002
	l-0.031,0.027c-0.873,0.735-2.176,0.622-2.912-0.252l-8.678-10.325V381.765z"/>
<path style="fill:#FAD24D;" d="M168.82,351.946c8.103,0,15.439,3.286,20.749,8.594c5.31,5.31,8.594,12.647,8.594,20.749
	c0,8.102-3.286,15.439-8.594,20.749c-5.31,5.31-12.647,8.594-20.749,8.594c-8.103,0-15.439-3.286-20.749-8.594
	c-5.31-5.31-8.594-12.647-8.594-20.749c0-8.102,3.286-15.439,8.594-20.749C153.379,355.232,160.716,351.946,168.82,351.946z
	 M186.806,363.303c-4.604-4.604-10.965-7.45-17.987-7.45c-7.024,0-13.386,2.848-17.987,7.45c-4.604,4.604-7.45,10.965-7.45,17.987
	c0,7.024,2.848,13.386,7.45,17.987c4.604,4.604,10.965,7.45,17.987,7.45c7.024,0,13.386-2.848,17.987-7.45
	c4.604-4.604,7.45-10.965,7.45-17.987C194.257,374.266,191.408,367.905,186.806,363.303z"/>
<g>
</g>
<g>
</g>
<g>
</g>
<g>
</g>
<g>
</g>
<g>
</g>
<g>
</g>
<g>
</g>
<g>
</g>
<g>
</g>
<g>
</g>
<g>
</g>
<g>
</g>
<g>
</g>
<g>
</g>
</svg>
