<?xml version="1.0" encoding="iso-8859-1"?>
<!-- Generator: Adobe Illustrator 19.0.0, SVG Export Plug-In . SVG Version: 6.00 Build 0)  -->
<svg version="1.1" id="Layer_1" xmlns="http://www.w3.org/2000/svg" xmlns:xlink="http://www.w3.org/1999/xlink" x="0px" y="0px"
	 viewBox="0 0 512 512" style="enable-background:new 0 0 512 512;" xml:space="preserve">
<circle style="fill:#21D0C3;" cx="256" cy="256" r="256"/>
<path style="fill:#FAD24D;" d="M44.4,114.077l195.991,35.356c7.601,1.091,11.943,2.08,13.802,2.009
	c2.051-0.079,5.139-1.033,17.412-3.114l195.991-34.254c8.887-1.55,15.609,1.991,15.609,10.117v215.377
	c0,8.129-7.022,16.874-15.609,19.437l-214.604,63.55l-208.591-63.55c-8.585-2.563-15.606-11.305-15.606-19.437V124.192
	c0-8.126,6.707-11.72,15.606-10.117L44.4,114.077L44.4,114.077z"/>
<path style="fill:#EDB937;" d="M252.991,151.389c0.477,0.047,0.878,0.068,1.202,0.055c2.051-0.079,5.139-1.033,17.412-3.114
	l195.99-34.254c8.887-1.55,15.609,1.991,15.609,10.117v215.38c0,8.129-7.022,16.895-15.609,19.437l-214.604,63.551V151.392
	L252.991,151.389L252.991,151.389z"/>
<path style="fill:#FFDB66;" d="M473.733,113.406l-190.47-23.062c-7.106-0.86-20.444-1.327-29.176-0.377L175.29,98.57l-5.872,0.643
	l-123.177,13.45c-8.698,0.947-10.211,3.381-2.458,4.701l194.632,33.291c4.11,0.698,10.027,1.943,15.622,1.999
	c4.949,0.053,9.626-0.96,13.553-1.621l103.173-17.377l13.417-2.075l87.094-13.467c8.399-1.301,9.568-3.842,2.458-4.706v-0.002
	H473.733z"/>
<path style="fill:#FF5B62;" d="M326.721,95.603L134.379,132.86l48.153,8.234l177.376-41.47L326.721,95.603z"/>
<path style="fill:#EDB937;" d="M182.532,149.506c2.938,33.21,7.812,62.74-16.942,87.013l-41.669-16.897L182.532,149.506z"/>
<path style="fill:#ED4C54;" d="M134.377,132.861c5.052,24.079,8.968,61.958-16.908,72.904l48.125,20.475
	c29.706-17.91,15.392-77.544,16.94-85.145L134.377,132.861z"/>
<g>
	<path style="fill:#FFFFFF;" d="M78.042,257.212c0-6.059,1.442-10.372,4.331-12.937c2.888-2.565,7.216-3.171,12.99-1.815
		c5.774,1.353,10.104,3.992,12.99,7.913c2.888,3.921,4.331,8.911,4.331,14.97v2.352l-11.119-2.61v-3.1
		c0-2.71-0.517-4.737-1.55-6.083c-1.033-1.348-2.476-2.24-4.331-2.676c-1.851-0.435-3.298-0.221-4.331,0.64
		c-1.033,0.863-1.55,2.647-1.55,5.356c0,2.565,0.569,4.96,1.711,7.19c1.141,2.227,2.565,4.414,4.276,6.563
		c1.711,2.148,3.546,4.326,5.505,6.531c1.959,2.206,3.796,4.543,5.505,7.011c1.71,2.468,3.137,5.154,4.276,8.06
		c1.141,2.903,1.711,6.138,1.711,9.702c0,6.059-1.479,10.361-4.438,12.911s-7.324,3.145-13.096,1.792
		c-5.774-1.353-10.138-4.003-13.096-7.939c-2.959-3.937-4.438-8.934-4.438-14.993v-4.598l11.119,2.61v5.345
		c0,2.71,0.554,4.727,1.658,6.056c1.104,1.327,2.584,2.209,4.438,2.644c1.851,0.435,3.331,0.25,4.438-0.561
		c1.104-0.81,1.658-2.568,1.658-5.278c0-2.565-0.572-4.962-1.711-7.19c-1.141-2.227-2.565-4.414-4.276-6.563
		c-1.711-2.148-3.546-4.326-5.505-6.534c-1.959-2.206-3.796-4.543-5.505-7.011s-3.135-5.157-4.276-8.06
		C78.611,264.008,78.042,260.774,78.042,257.212z"/>
	<path style="fill:#FFFFFF;" d="M131.281,283.284l16.142,3.791v10.691l-16.142-3.791v21.915l20.312,4.769v10.692l-32.071-7.528
		v-74.834l32.071,7.528v10.691l-20.312-4.769v20.847V283.284z"/>
	<path style="fill:#FFFFFF;" d="M169.661,318.38c0,2.71,0.554,4.745,1.658,6.109s2.584,2.264,4.438,2.699
		c1.851,0.435,3.331,0.231,4.438-0.617c1.104-0.844,1.655-2.621,1.655-5.33v-40.41c0-2.71-0.551-4.745-1.655-6.109
		c-1.107-1.364-2.584-2.264-4.438-2.699c-1.851-0.435-3.331-0.231-4.438,0.617c-1.104,0.844-1.658,2.62-1.658,5.33V318.38z
		 M157.902,275.955c0-6.059,1.532-10.351,4.598-12.871c3.064-2.523,7.483-3.108,13.257-1.755c5.774,1.356,10.19,4.016,13.257,7.976
		c3.064,3.963,4.598,8.973,4.598,15.033v38.915c0,6.059-1.532,10.351-4.598,12.871c-3.064,2.523-7.483,3.108-13.257,1.753
		c-5.774-1.353-10.193-4.013-13.257-7.976c-3.064-3.963-4.598-8.973-4.598-15.033v-38.915V275.955z"/>
</g>
<path style="fill:#FFDB66;" d="M411.107,252.154v-15.68l-8-0.947c-0.477-3.405-1.217-6.694-2.201-9.837l6.452-5.922l-6.531-13.43
	l-7.402,3.995c-1.813-2.591-3.83-4.965-6.022-7.092l3.187-8.957l-11.313-7.583l-4.811,7.856l0.002,0.008
	c-2.636-1.12-5.392-1.949-8.236-2.455l-0.942-9.582l-13.062,0.299l-0.942,9.624c-2.843,0.638-5.598,1.59-8.234,2.83l-4.811-7.636
	l-11.313,8.097l3.187,8.811c-2.193,2.227-4.21,4.695-6.022,7.368l-7.402-3.657l-6.531,13.729l6.452,5.629
	c-0.984,3.185-1.724,6.51-2.201,9.934l-8,1.311v15.68l8,0.947c0.477,3.402,1.217,6.691,2.201,9.834l-6.452,5.922l6.531,13.43
	l7.402-3.995c1.812,2.592,3.83,4.966,6.022,7.093l-3.187,8.957l11.313,7.58l4.811-7.856c2.637,1.123,5.39,1.949,8.234,2.455
	l0.942,9.582l13.062-0.299l0.942-9.624c2.843-0.638,5.598-1.59,8.234-2.83l4.811,7.636l11.313-8.097l-3.187-8.814
	c2.193-2.227,4.21-4.695,6.022-7.368l7.402,3.657l6.531-13.729l-6.452-5.629c0.984-3.185,1.724-6.51,2.201-9.934L411.107,252.154z
	 M358.756,266.504c-9.663,0.221-17.496-9.002-17.496-20.601c0-11.598,7.835-21.177,17.496-21.398
	c9.663-0.221,17.496,9.002,17.496,20.601C376.252,256.704,368.417,266.286,358.756,266.504z"/>
<path style="fill:#FAD24D;" d="M358.756,216.144c-13.512,0.309-24.465,13.705-24.465,29.923c0,16.221,10.954,29.115,24.465,28.809
	c13.512-0.309,24.465-13.705,24.465-29.923S372.268,215.837,358.756,216.144z M358.756,266.507
	c-9.663,0.221-17.496-9.002-17.496-20.601c0-11.598,7.835-21.177,17.496-21.398c9.663-0.221,17.496,9.002,17.496,20.601
	C376.252,256.708,368.417,266.289,358.756,266.507z"/>
<path style="fill:#FFDB66;" d="M433.667,309.448v-5.907l-3.014-0.356c-0.179-1.281-0.459-2.518-0.829-3.704l2.431-2.233l-2.46-5.06
	l-2.789,1.503c-0.685-0.973-1.442-1.869-2.269-2.67l1.199-3.375l-4.263-2.856l-1.812,2.959v-0.006
	c-0.994-0.422-2.033-0.732-3.103-0.923l-0.354-3.609l-4.92,0.113l-0.354,3.625c-1.073,0.238-2.109,0.598-3.103,1.065l-1.812-2.877
	l-4.263,3.051l1.199,3.319c-0.826,0.839-1.584,1.769-2.269,2.776l-2.789-1.377l-2.46,5.173l2.431,2.12
	c-0.369,1.201-0.65,2.452-0.828,3.743l-3.014,0.496v5.907l3.014,0.356c0.178,1.282,0.458,2.521,0.828,3.704l-2.431,2.233l2.46,5.06
	l2.789-1.503c0.685,0.976,1.442,1.87,2.269,2.673l-1.199,3.375l4.263,2.856l1.812-2.959c0.994,0.422,2.033,0.735,3.103,0.926
	l0.354,3.609l4.92-0.113l0.354-3.625c1.073-0.239,2.109-0.598,3.103-1.065l1.812,2.877l4.263-3.051l-1.199-3.319
	c0.826-0.839,1.584-1.768,2.269-2.776l2.789,1.377l2.46-5.173l-2.431-2.12c0.37-1.201,0.651-2.452,0.829-3.743L433.667,309.448z
	 M413.944,314.858c-3.641,0.081-6.592-3.391-6.592-7.762c0-4.367,2.951-7.979,6.592-8.06v-0.003
	c3.641-0.081,6.592,3.391,6.592,7.762S417.585,314.774,413.944,314.858z"/>
<g>
</g>
<g>
</g>
<g>
</g>
<g>
</g>
<g>
</g>
<g>
</g>
<g>
</g>
<g>
</g>
<g>
</g>
<g>
</g>
<g>
</g>
<g>
</g>
<g>
</g>
<g>
</g>
<g>
</g>
</svg>
