<?xml version="1.0" encoding="iso-8859-1"?>
<!-- Generator: Adobe Illustrator 19.0.0, SVG Export Plug-In . SVG Version: 6.00 Build 0)  -->
<svg version="1.1" id="Layer_1" xmlns="http://www.w3.org/2000/svg" xmlns:xlink="http://www.w3.org/1999/xlink" x="0px" y="0px"
	 viewBox="0 0 511.998 511.998" style="enable-background:new 0 0 511.998 511.998;" xml:space="preserve">
<circle style="fill:#FAD24D;" cx="255.999" cy="255.999" r="255.999"/>
<path style="fill:#FF5B62;" d="M259.129,59.634c51.629,0,93.485,41.854,93.485,93.488c0,51.631-41.857,93.485-93.485,93.485
	c-51.631,0-93.488-41.854-93.488-93.485S207.498,59.634,259.129,59.634z"/>
<path style="fill:#FED298;" d="M231.321,207.377l-47.045,1.762c-10.766-14.365-17.493-31.927-18.501-51.009l67.349,2.781
	c2.19-4.776,7.675-11.329,11.533-12.407l11.296-12.106l2.985-9.644l1.501-11.703c0.578-4.489,7.558-4.932,10.999-0.802
	c3.889,4.663,4.231,16.027,2.77,21.116l-4.866,16.989l25.107,0.6l8.352-0.397c8.932-0.423,10.259,14.276,0.582,14.737l-7.589,0.364
	l-0.212,1.211l8.725-0.776c7.425-0.666,8.764,13.457,0.317,14.208l-11.571,1.034l-0.241,1.376l8.55-0.773
	c2.915-0.264,5.452,2.765,5.452,6.709v0.002c0,3.942-2.26,7.016-5.168,7.349l-9.876,1.138l0.013,0.75l6.464-0.269
	c6.785-0.28,7.084,11.853,0.69,12.534l-8.098,0.864l-0.004,0.049l-1.367,0.097l-0.029,0.002v-0.002l-12.711,0.906l-29.181,1.023
	c-6.087,0.214-11.245-2.692-14.23-5.384C232.466,208.931,231.793,208.14,231.321,207.377z"/>
<path style="fill:#0F7986;" d="M207.945,154.692l0.66,57.187l-20.882,1.579c-13.76-16.267-22.064-37.297-22.082-60.269l42.302,1.504
	L207.945,154.692L207.945,154.692z"/>
<path style="fill:#FFFFFF;" d="M218.141,156.339l0.888,53.695l-10.394,0.053l-0.888-53.695l10.392-0.053H218.141z"/>
<path style="fill:#15BDB2;" d="M197.024,203.441c0.024,2.5-1.933,4.548-4.37,4.575c-2.438,0.027-4.434-1.984-4.456-4.484
	c-0.024-2.5,1.933-4.551,4.37-4.575C195.007,198.932,197.005,200.939,197.024,203.441z"/>
<g>
	<path style="fill:#FFFFFF;" d="M266.583,115.895l-0.483,7.757c-1.883-0.62-3.819-0.941-5.861-0.62l0.582-7.062
		C261.182,111.594,266.857,111.55,266.583,115.895z"/>
	<path style="fill:#FFFFFF;" d="M261.751,84.163h2.781v12.451h-2.781V84.163z M249.417,85.515l-2.679,0.755l3.377,11.982
		l2.679-0.755L249.417,85.515z M275.799,85.515l2.677,0.755l-3.377,11.982l-2.677-0.755L275.799,85.515z M315.399,137.516
		l-0.217,2.774l-12.414-0.968l0.216-2.772L315.399,137.516z M313.97,123.473l0.547,2.728l-12.208,2.438l-0.547-2.73L313.97,123.473z
		 M308.787,110.344l1.264,2.478l-11.088,5.658l-1.266-2.476L308.787,110.344z M300.233,99.114l1.889,2.042l-9.137,8.455
		l-1.889-2.042L300.233,99.114z M288.958,90.626l2.37,1.451l-6.5,10.616l-2.37-1.453L288.958,90.626z M209.817,137.516l0.216,2.774
		l12.411-0.968l-0.214-2.772L209.817,137.516z M211.244,123.473l-0.542,2.728l12.208,2.438l0.547-2.73l-12.21-2.436
		C211.247,123.473,211.244,123.473,211.244,123.473z M216.429,110.344l-1.266,2.478l11.09,5.658l1.264-2.476L216.429,110.344z
		 M224.983,99.114l-1.889,2.042l9.137,8.455l1.889-2.042L224.983,99.114z M236.26,90.626l-2.372,1.451l6.5,10.616l2.372-1.453
		L236.26,90.626z"/>
</g>
<path style="fill:#21D0C3;" d="M107.711,264.751c21.925,0,39.702-17.775,39.702-39.705s-17.777-39.705-39.702-39.705
	c-21.929,0-39.705,17.775-39.705,39.705S85.784,264.751,107.711,264.751z"/>
<path style="fill:#FED298;" d="M95.902,202.006l-19.98-0.748c-4.573,6.101-7.43,13.559-7.858,21.663l28.603-1.182
	c0.93,2.028,3.259,4.811,4.897,5.27l4.798,5.142l1.268,4.097l0.637,4.969c0.247,1.907,3.211,2.095,4.672,0.341
	c1.652-1.98,1.796-6.807,1.178-8.967l-2.066-7.214l10.662-0.254l3.548,0.168c3.793,0.181,4.356-6.063,0.247-6.258l-3.224-0.155
	l-0.091-0.514l3.704,0.33c3.153,0.282,3.722-5.715,0.135-6.034l-4.914-0.439l-0.102-0.584l3.631,0.328
	c1.237,0.113,2.315-1.173,2.315-2.848l0,0c0-1.674-0.959-2.979-2.194-3.122l-4.194-0.483l0.007-0.317l2.748,0.115
	c2.881,0.119,3.007-5.034,0.293-5.323l-3.439-0.368l-0.002-0.022l-0.582-0.042l-0.011-0.002l0,0l-5.399-0.383l-12.394-0.434
	c-2.584-0.091-4.776,1.145-6.043,2.287c-0.364,0.326-0.651,0.662-0.849,0.985C95.902,202.008,95.902,202.006,95.902,202.006z"/>
<path style="fill:#0F7986;" d="M85.974,224.383l0.28-24.288l-8.868-0.671c-5.845,6.907-9.371,15.842-9.378,25.596L85.974,224.383z"
	/>
<path style="fill:#FFFFFF;" d="M90.304,223.681l0.377-22.804l-4.414-0.022l-0.377,22.804L90.304,223.681z"/>
<path style="fill:#15BDB2;" d="M81.335,203.677c0.011-1.063-0.82-1.931-1.856-1.942c-1.034-0.011-1.883,0.842-1.891,1.905
	c-0.011,1.063,0.82,1.931,1.854,1.942C80.477,205.593,81.324,204.739,81.335,203.677z"/>
<path style="fill:#FFFFFF;" d="M110.877,240.86l-0.205-3.294c-0.8,0.262-1.623,0.399-2.489,0.262l0.247,2.998
	C108.581,242.685,110.992,242.705,110.877,240.86z"/>
<path style="fill:#21D0C3;" d="M417.745,213.826c21.927,0,39.705-17.775,39.705-39.705s-17.777-39.705-39.705-39.705
	c-21.929,0-39.705,17.777-39.705,39.705C378.04,196.05,395.818,213.826,417.745,213.826z"/>
<path style="fill:#FED298;" d="M405.937,151.08l-19.98-0.748c-4.573,6.101-7.43,13.559-7.858,21.663l28.603-1.182
	c0.93,2.028,3.261,4.811,4.897,5.27l4.798,5.142l1.268,4.097l0.637,4.969c0.245,1.907,3.211,2.095,4.672,0.341
	c1.652-1.98,1.796-6.807,1.178-8.967l-2.068-7.217l10.663-0.254l3.548,0.168c3.793,0.181,4.356-6.063,0.247-6.258l-3.224-0.155
	l-0.091-0.514l3.704,0.33c3.155,0.282,3.722-5.715,0.135-6.034l-4.914-0.439l-0.102-0.584l3.631,0.328
	c1.237,0.113,2.317-1.173,2.317-2.848l0,0c0-1.674-0.961-2.981-2.196-3.122l-4.194-0.483l0.007-0.317l2.748,0.115
	c2.881,0.119,3.007-5.034,0.293-5.323l-3.439-0.368l-0.002-0.022l-0.58-0.042l-0.013-0.002l0,0l-5.399-0.383l-12.394-0.434
	c-2.584-0.091-4.776,1.145-6.043,2.287c-0.364,0.326-0.651,0.662-0.849,0.986L405.937,151.08L405.937,151.08z"/>
<path style="fill:#0F7986;" d="M396.008,173.456l0.28-24.286l-8.868-0.671c-5.845,6.907-9.371,15.842-9.378,25.596l17.967-0.64
	h-0.002V173.456z"/>
<path style="fill:#FFFFFF;" d="M400.339,172.756l0.377-22.804l-4.414-0.022l-0.377,22.804L400.339,172.756z"/>
<path style="fill:#15BDB2;" d="M391.371,152.752c0.011-1.063-0.82-1.931-1.854-1.942c-1.036-0.011-1.883,0.842-1.894,1.905
	c-0.011,1.061,0.822,1.931,1.854,1.942C390.513,154.667,391.362,153.814,391.371,152.752z"/>
<path style="fill:#FFFFFF;" d="M420.911,189.932l-0.205-3.294c-0.8,0.262-1.623,0.399-2.489,0.262l0.247,2.998
	c0.152,1.858,2.562,1.878,2.447,0.031L420.911,189.932L420.911,189.932z"/>
<path style="fill:#15BDB2;" d="M135.229,346.853l33.814-4.95l9.342,4.95v153.153c-15.035-4.778-29.465-10.906-43.154-18.243v-134.91
	H135.229z M340.375,497.75V346.853l33.816-4.95l9.342,4.95V478.02C369.891,485.871,355.451,492.488,340.375,497.75L340.375,497.75
	L340.375,497.75z"/>
<path style="fill:#21D0C3;" d="M125.886,341.903h43.156V496.84c-15.096-5.452-29.529-12.288-43.156-20.346V341.903z
	 M331.031,500.815V341.903h43.158v141.223C360.482,490.271,346.053,496.216,331.031,500.815z"/>
<g>
	<path style="fill:#FFFFFF;" d="M125.886,341.903h43.156v5.589v39.337h-43.156V341.903z M331.031,386.829v-44.926h43.158v44.926
		H331.031z"/>
	<path style="fill:#FFFFFF;" d="M281.191,296.581l-57.364,78.305l26.832-4.418l-23.808,68.407l57.364-78.305l-26.829,4.418
		L281.191,296.581L281.191,296.581z"/>
</g>
<g>
	<path style="fill:#ECF0F1;" d="M169.041,341.903l9.342,4.95v43.672l-9.342-3.696V341.903z"/>
	<path style="fill:#ECF0F1;" d="M374.189,341.903l9.342,4.95v43.672l-9.342-3.696V341.903z"/>
</g>
<path style="fill:#FFFFFF;" d="M354.576,285.979v33.205h-4.041v-33.205H354.576z M154.837,285.979v33.205h4.041v-33.205H154.837z
	 M144.146,299.134v26.987h4.044v-26.987H144.146z M365.268,299.134v26.987h-4.041v-26.987H365.268z"/>
<g>
</g>
<g>
</g>
<g>
</g>
<g>
</g>
<g>
</g>
<g>
</g>
<g>
</g>
<g>
</g>
<g>
</g>
<g>
</g>
<g>
</g>
<g>
</g>
<g>
</g>
<g>
</g>
<g>
</g>
</svg>
