<?xml version="1.0" encoding="iso-8859-1"?>
<!-- Generator: Adobe Illustrator 19.0.0, SVG Export Plug-In . SVG Version: 6.00 Build 0)  -->
<svg version="1.1" id="Layer_1" xmlns="http://www.w3.org/2000/svg" xmlns:xlink="http://www.w3.org/1999/xlink" x="0px" y="0px"
	 viewBox="0 0 512 512" style="enable-background:new 0 0 512 512;" xml:space="preserve">
<circle style="fill:#0F7986;" cx="256" cy="256" r="256"/>
<path style="fill:#FFFFFF;" d="M89.573,61.492h332.855h49.549c6.003,0,10.916,4.915,10.916,10.916v64.96v237.268
	C387.321,557.04,124.678,557.04,29.108,374.633V137.37V72.408c0-6.003,4.911-10.916,10.916-10.916L89.573,61.492L89.573,61.492z"/>
<g>
	<path style="fill:#ECF0F1;" d="M65.658,390.691h81.948v4.991H65.658V390.691z M65.658,415.018h58.047v4.991H65.658
		C65.658,420.01,65.658,415.018,65.658,415.018z M65.658,402.854h81.948v4.991H65.658V402.854z"/>
	<path style="fill:#ECF0F1;" d="M215.026,390.691h81.948v4.991h-81.948V390.691L215.026,390.691z M215.026,415.018h58.047v4.991
		h-58.047V415.018L215.026,415.018z M215.026,402.854h81.948v4.991h-81.948V402.854L215.026,402.854z"/>
</g>
<path style="fill:#FAD24D;" d="M203.036,289.018h105.928v84.208H203.036V289.018z"/>
<path style="fill:#21D0C3;" d="M53.668,289.018h105.928v84.208H53.668V289.018z"/>
<path style="fill:#828282;" d="M40.024,61.492h431.951c6.004,0,10.917,4.911,10.917,10.917v21.83H29.107V72.408
	C29.107,66.403,34.02,61.492,40.024,61.492L40.024,61.492z"/>
<path style="fill:#FFFFFF;" d="M231.13,72.797h219.202c1.62,0,2.932,1.313,2.932,2.932v5.44c0,1.62-1.313,2.932-2.932,2.932H231.13
	c-1.62,0-2.932-1.313-2.932-2.932v-5.44C228.197,74.11,229.511,72.797,231.13,72.797z"/>
<circle style="fill:#21D0C3;" cx="50.881" cy="77.14" r="6.286"/>
<circle style="fill:#FAD24D;" cx="75.69" cy="77.14" r="6.286"/>
<circle style="fill:#FF5B62;" cx="100.5" cy="77.14" r="6.286"/>
<rect x="53.668" y="106.24" style="fill:#ECF0F1;" width="404.67" height="133.49"/>
<path style="fill:#21D0C3;" d="M422.98,281.375l11.688-15.676l27.484,15.867l-7.741,17.983c5.327,4.406,10.227,9.308,14.633,14.634
	l17.983-7.741l15.868,27.484l-15.677,11.688c2.388,6.405,4.189,13.097,5.346,20.006L512,367.907v31.736l-19.437,2.287
	c-1.157,6.909-2.957,13.6-5.346,20.006l15.676,11.688l-15.867,27.484l-17.984-7.741c-4.406,5.327-9.306,10.227-14.633,14.633
	l7.741,17.983l-27.483,15.868l-11.69-15.677c-6.405,2.388-13.097,4.189-20.006,5.346l-2.286,19.437h-31.736l-2.286-19.437
	c-6.91-1.157-13.6-2.957-20.006-5.346l-11.688,15.676l-27.484-15.867l7.74-17.983c-5.327-4.406-10.227-9.306-14.633-14.633
	l-17.983,7.741l-15.868-27.483l15.677-11.69c-2.388-6.405-4.19-13.097-5.346-20.006l-19.437-2.286v-31.736l19.437-2.287
	c1.157-6.909,2.957-13.6,5.346-20.006l-15.676-11.688l15.867-27.484l17.984,7.741c4.406-5.327,9.306-10.227,14.633-14.633
	l-7.741-17.983l27.484-15.868l11.69,15.677c6.405-2.388,13.096-4.19,20.006-5.346l2.286-19.437h31.736l2.286,19.437
	C409.881,277.186,416.574,278.987,422.98,281.375L422.98,281.375z"/>
<circle style="fill:#ECF0F1;" cx="384.82" cy="383.77" r="94.11"/>
<circle style="fill:#FFFFFF;" cx="384.82" cy="383.77" r="90.05"/>
<path style="fill:#FAD24D;" d="M416.502,441.74l-26.906-15.339l-2.479-1.413l2.479-1.413l26.906-15.342l2.432-1.387v2.801v10.31
	c8.067-2.674,15.053-7.748,20.102-14.377c5.341-7.012,8.513-15.774,8.513-25.281c0-11.53-4.676-21.974-12.233-29.531
	s-18.001-12.234-29.531-12.234l-3.809,0.167l-0.265-8.948c1.353-0.109,2.714-0.165,4.074-0.165c14.003,0,26.684,5.678,35.859,14.854
	c9.174,9.175,14.852,21.856,14.852,35.859c0,11.824-4.051,22.709-10.841,31.334c-6.672,8.472-15.995,14.771-26.72,17.643v11.053v2.8
	L416.502,441.74L416.502,441.74z"/>
<path style="fill:#0F7986;" d="M368.417,350.276c-0.682,0.755-1.225,1.358-1.531,1.78c1.098,0.751,2.033,1.399,2.881,1.987
	c5.409,3.746,7.688,5.325,16.428,9.308l0.607,0.275l-0.443,0.502l-4.538,5.137l-0.21,0.239l-0.304-0.093
	c-6.068-1.857-14.204-8.124-19.569-12.255l-0.219-0.169c-2.222,1.698-5.702,4.301-9.303,6.712
	c-3.789,2.537-7.721,4.863-10.496,5.712l-0.303,0.093l-0.211-0.239l-4.393-4.973l-0.442-0.502l0.606-0.277
	c1.444-0.658,2.541-1.101,3.53-1.498c2.112-0.851,3.75-1.511,7.019-3.565c1.419-0.89,3.972-2.551,6.086-4.099
	c1.139-0.833,2.14-1.628,2.733-2.226c-1.86-1.783-4.471-4.778-6.694-8.078c-1.778-2.638-3.322-5.488-4.06-8.097l-0.176-0.625
	l0.652-0.005l7.696-0.05l0.297-0.002l0.142,0.265c0.572,1.067,0.835,1.721,1.076,2.321c0.386,0.962,0.723,1.793,2.323,4.161
	c0.783,1.159,1.48,2.128,2.19,3.009c0.641,0.792,1.309,1.535,2.076,2.296c1.663-1.141,4.381-4.649,6.413-8.622
	c1.549-3.027,2.684-6.309,2.623-8.979l-34.858-0.057l-0.496-0.001v-0.495v-6.697v-0.495h0.496l21.664-0.002v-6.153v-0.496h0.496
	h6.641h0.496l-0.001,0.496l-0.007,6.151l21.672-0.006l0.495-0.001v0.497l0.005,6.649l0.001,0.494l-0.497,0.001l-8.365,0.004
	c-0.656,10.064-6.965,17.057-10.226,20.668H368.417L368.417,350.276z"/>
<path style="fill:#FF5B62;" d="M367.239,394.073l-11.399-0.027l-20.847,53.031l9.965,0.047l4.117-12.544l25.063-0.028l4.101,12.544
	l9.828-0.008L367.239,394.073z M351.922,427.423l9.801-24.393l9.484,24.531L351.922,427.423z"/>
<g>
</g>
<g>
</g>
<g>
</g>
<g>
</g>
<g>
</g>
<g>
</g>
<g>
</g>
<g>
</g>
<g>
</g>
<g>
</g>
<g>
</g>
<g>
</g>
<g>
</g>
<g>
</g>
<g>
</g>
</svg>
