<?xml version="1.0" encoding="iso-8859-1"?>
<!-- Generator: Adobe Illustrator 19.0.0, SVG Export Plug-In . SVG Version: 6.00 Build 0)  -->
<svg version="1.1" id="Layer_1" xmlns="http://www.w3.org/2000/svg" xmlns:xlink="http://www.w3.org/1999/xlink" x="0px" y="0px"
	 viewBox="0 0 512 512" style="enable-background:new 0 0 512 512;" xml:space="preserve">
<circle style="fill:#FF5B62;" cx="256" cy="256" r="256"/>
<ellipse style="fill:#ED4C54;" cx="256" cy="421.646" rx="182.284" ry="14.37"/>
<path style="fill:#666666;" d="M65.982,67.222h380.037c12.486,0,22.701,10.216,22.701,22.702V324.03H43.281V89.923
	C43.281,77.439,53.497,67.222,65.982,67.222L65.982,67.222z"/>
<path style="fill:#DCE3DB;" d="M58.695,308.616h394.609V89.923c0-3.978-3.309-7.287-7.286-7.287H65.981
	c-3.977,0-7.286,3.309-7.286,7.287V308.616L58.695,308.616z"/>
<path style="fill:#FFFFFF;" d="M468.719,324.03v24.828c0,12.488-11.259,22.702-25.025,22.702H68.306
	c-13.764,0-25.025-10.214-25.025-22.702V324.03H468.719L468.719,324.03z"/>
<circle style="fill:#B6B6B8;" cx="256" cy="346.803" r="7.815"/>
<path style="fill:#C2C2C4;" d="M305.065,407.272l36.096,11.566H170.836l29.124-11.566v-35.713h105.105V407.272z"/>
<path style="fill:#B0B0B0;" d="M305.065,407.272L199.96,371.558h105.105V407.272z"/>
<path style="fill:#ECF0F1;" d="M199.96,407.272h105.105l36.096,11.566v4.981H256h-85.164v-4.981L199.96,407.272L199.96,407.272z"/>
<path style="fill:#FFFFFF;" d="M141.238,115.529h229.524h34.166c4.141,0,7.527,3.389,7.527,7.527v44.796v140.766H99.545
	l-0.002-140.766v-44.796c0-4.141,3.386-7.527,7.527-7.527H141.238L141.238,115.529z"/>
<path style="fill:#828282;" d="M107.071,115.529h297.857c4.141,0,7.527,3.386,7.527,7.527v15.053H99.543v-15.053
	C99.543,118.916,102.93,115.529,107.071,115.529L107.071,115.529z"/>
<path style="fill:#FFFFFF;" d="M226.384,123.327h163.62c1.114,0,2.022,0.912,2.022,2.022v3.752c0,1.111-0.911,2.022-2.022,2.022
	h-163.62c-1.108,0-2.02-0.909-2.02-2.022v-3.752C224.363,124.236,225.272,123.327,226.384,123.327z"/>
<path style="fill:#21D0C3;" d="M117.333,121.985c2.391,0,4.334,1.938,4.334,4.335c0,2.394-1.941,4.334-4.334,4.334
	c-2.396,0-4.338-1.939-4.338-4.334C112.995,123.922,114.937,121.985,117.333,121.985z"/>
<path style="fill:#FAD24D;" d="M134.44,121.985c2.396,0,4.335,1.938,4.335,4.335c0,2.394-1.938,4.334-4.335,4.334
	c-2.393,0-4.334-1.939-4.334-4.334C130.107,123.922,132.047,121.985,134.44,121.985z"/>
<path style="fill:#FF5B62;" d="M151.552,121.985c2.391,0,4.334,1.938,4.334,4.335c0,2.394-1.941,4.334-4.334,4.334
	c-2.396,0-4.338-1.939-4.338-4.334C147.214,123.922,149.156,121.985,151.552,121.985z"/>
<path style="fill:#21D0C3;" d="M255.632,182.1h43.788l29.076,83.554L255.632,182.1z"/>
<path style="fill:#51BBB2;" d="M328.496,265.654L299.42,182.1h58.154L328.496,265.654z"/>
<path style="fill:#15BDB2;" d="M328.496,265.654l29.077-83.554h43.788L328.496,265.654z"/>
<path style="fill:#51BBB2;" d="M356.731,182.1l-13.057-24.098h41.497l15.066,24.098h-42.664H356.731L356.731,182.1z"/>
<path style="fill:#21D0C3;" d="M343.674,158.001l13.057,24.098H299.42h-1.137l13.059-24.098H343.674z"/>
<path style="fill:#15BDB2;" d="M311.342,158.001l-13.058,24.098h-42.652h-0.853l17.045-24.098H311.342z"/>
<rect x="121.553" y="158.001" style="fill:#FCB42A;" width="28.261" height="6.723"/>
<rect x="155.177" y="158.001" style="fill:#FF5B62;" width="41.938" height="6.723"/>
<rect x="121.553" y="179.779" style="fill:#21D0C3;" width="28.261" height="6.723"/>
<rect x="155.177" y="179.779" style="fill:#FF5B62;" width="50.546" height="6.723"/>
<rect x="209.71" y="179.779" style="fill:#FCB42A;" width="7.346" height="6.723"/>
<rect x="121.553" y="201.556" style="fill:#FF5B62;" width="18.681" height="6.723"/>
<rect x="145.695" y="201.556" style="fill:#21D0C3;" width="37.742" height="6.723"/>
<g>
	<rect x="188.791" y="201.556" style="fill:#FCB42A;" width="28.261" height="6.723"/>
	<rect x="121.553" y="223.334" style="fill:#FCB42A;" width="28.261" height="6.723"/>
</g>
<rect x="156.854" y="223.334" style="fill:#FF5B62;" width="59.364" height="6.723"/>
<rect x="219.152" y="223.334" style="fill:#21D0C3;" width="24.767" height="6.723"/>
<rect x="121.553" y="245.111" style="fill:#FF5B62;" width="34.721" height="6.723"/>
<rect x="162.862" y="245.111" style="fill:#21D0C3;" width="34.721" height="6.723"/>
<g>
	<rect x="204.161" y="245.111" style="fill:#FCB42A;" width="34.721" height="6.723"/>
	<rect x="121.553" y="266.889" style="fill:#FCB42A;" width="28.261" height="6.723"/>
</g>
<rect x="155.177" y="266.889" style="fill:#21D0C3;" width="16.95" height="6.723"/>
<rect x="175.338" y="266.889" style="fill:#FF5B62;" width="16.95" height="6.723"/>
<g>
</g>
<g>
</g>
<g>
</g>
<g>
</g>
<g>
</g>
<g>
</g>
<g>
</g>
<g>
</g>
<g>
</g>
<g>
</g>
<g>
</g>
<g>
</g>
<g>
</g>
<g>
</g>
<g>
</g>
</svg>
