<?xml version="1.0" encoding="iso-8859-1"?>
<!-- Generator: Adobe Illustrator 19.0.0, SVG Export Plug-In . SVG Version: 6.00 Build 0)  -->
<svg version="1.1" id="Layer_1" xmlns="http://www.w3.org/2000/svg" xmlns:xlink="http://www.w3.org/1999/xlink" x="0px" y="0px"
	 viewBox="0 0 512 512" style="enable-background:new 0 0 512 512;" xml:space="preserve">
<circle style="fill:#0F7986;" cx="256" cy="256" r="256"/>
<path style="fill:#FFFFFF;" d="M89.572,61.49h332.856h49.55c6.004,0,10.914,4.914,10.914,10.914v64.958v237.267
	c-95.571,182.405-358.213,182.405-453.785-0.005V137.363V72.4c0-6.004,4.909-10.914,10.914-10.914h49.55L89.572,61.49L89.572,61.49z
	"/>
<path style="fill:#828282;" d="M40.022,61.49h431.952c6.004,0,10.914,4.909,10.914,10.914v21.828H29.103V72.404
	c0-6.004,4.909-10.914,10.914-10.914C40.017,61.49,40.022,61.49,40.022,61.49z"/>
<path style="fill:#FFFFFF;" d="M231.128,72.797h219.202c1.62,0,2.933,1.313,2.933,2.933v5.441c0,1.62-1.313,2.933-2.933,2.933
	H231.128c-1.62,0-2.933-1.313-2.933-2.933V75.73C228.195,74.109,229.508,72.797,231.128,72.797z"/>
<circle style="fill:#21D0C3;" cx="50.881" cy="77.129" r="6.286"/>
<circle style="fill:#FAD24D;" cx="75.692" cy="77.129" r="6.286"/>
<circle style="fill:#FF5B62;" cx="100.504" cy="77.129" r="6.286"/>
<rect x="53.665" y="106.242" style="fill:#ECF0F1;" width="404.66" height="133.489"/>
<circle style="fill:#FF5B62;" cx="113.708" cy="286.121" r="26.899"/>
<circle style="fill:#21D0C3;" cx="256" cy="286.121" r="26.899"/>
<circle style="fill:#FAD24D;" cx="398.292" cy="286.121" r="26.899"/>
<g>
	<path style="fill:#DCE3DB;" d="M75.11,321.993H152.3v5.459H75.11V321.993z M75.11,356.301h51.851v5.459H75.11V356.301z
		 M75.11,339.148H152.3v5.459H75.11V339.148z"/>
	<path style="fill:#DCE3DB;" d="M217.405,321.993h77.189v5.459h-77.189L217.405,321.993L217.405,321.993z M217.405,356.301h51.851
		v5.459h-51.851V356.301z M217.405,339.148h77.189v5.459h-77.189L217.405,339.148L217.405,339.148z"/>
	<path style="fill:#DCE3DB;" d="M359.696,321.993h77.189v5.459h-77.189V321.993z M359.696,356.301h51.851v5.459h-51.851V356.301z
		 M359.696,339.148h77.189v5.459h-77.189V339.148z"/>
</g>
<g>
	<path style="fill:#ECF0F1;" d="M75.11,396.683h99.526v77.97h-51.832c-17.366-10.6-33.371-23.21-47.694-37.509V396.683z
		 M436.89,437.143c-14.318,14.3-30.327,26.909-47.694,37.509h-51.832v-77.97h99.526V437.143z M206.237,474.653v-77.97h99.526v77.97
		H206.237z"/>
	<rect x="112.63" y="386.146" style="fill:#ECF0F1;" width="284.724" height="1.677"/>
	<rect x="112.63" y="248.255" style="fill:#ECF0F1;" width="284.724" height="1.677"/>
</g>
<g>
</g>
<g>
</g>
<g>
</g>
<g>
</g>
<g>
</g>
<g>
</g>
<g>
</g>
<g>
</g>
<g>
</g>
<g>
</g>
<g>
</g>
<g>
</g>
<g>
</g>
<g>
</g>
<g>
</g>
</svg>
