<?xml version="1.0" encoding="iso-8859-1"?>
<!-- Generator: Adobe Illustrator 19.0.0, SVG Export Plug-In . SVG Version: 6.00 Build 0)  -->
<svg version="1.1" id="Layer_1" xmlns="http://www.w3.org/2000/svg" xmlns:xlink="http://www.w3.org/1999/xlink" x="0px" y="0px"
	 viewBox="0 0 512 512" style="enable-background:new 0 0 512 512;" xml:space="preserve">
<circle style="fill:#0F7986;" cx="256" cy="256" r="256"/>
<g>
	<path style="fill:#C2C2C4;" d="M257.796,52.543l86.746,50.081l86.786,50.104c1.132,0.652,1.765,1.833,1.769,3.053h0.014v100.213
		v100.213c0,1.427-0.845,2.656-2.065,3.215l-86.505,49.942l-86.786,50.104c-1.141,0.656-2.494,0.601-3.552-0.028l-86.746-50.081
		L80.67,359.256c-1.132-0.652-1.765-1.833-1.769-3.053h-0.014V255.991V155.778c0-1.427,0.845-2.656,2.065-3.215l86.505-49.942
		l86.786-50.104C255.386,51.86,256.739,51.915,257.796,52.543z M341.032,108.731l-85.036-49.093l-85.036,49.093L85.956,157.81V256
		v98.19l85.004,49.079l85.036,49.093l85.036-49.093l85.004-49.079V256v-98.19L341.032,108.731z"/>
	<path style="fill:#C2C2C4;" d="M259.159,54.008l86.676,150.124l0.005-0.005l86.786,150.318c0.974,1.686,0.402,3.842-1.284,4.822
		c-0.559,0.323-1.169,0.476-1.769,0.476v0.009H255.995H82.417c-1.954,0-3.538-1.584-3.538-3.538c0-0.758,0.241-1.459,0.647-2.037
		L166.15,204.14l0.005-0.009l-0.005-0.005l86.786-150.317c0.974-1.686,3.136-2.259,4.822-1.284c0.624,0.36,1.095,0.887,1.395,1.487
		L259.159,54.008z M339.733,207.65L256,62.626l-83.738,145.039l-0.005-0.005L88.528,352.68h167.467h167.463l-83.724-145.016
		l0.005-0.005L339.733,207.65z"/>
	<path style="fill:#C2C2C4;" d="M256.005,449.378l83.733-145.025l0.005-0.009l-0.005-0.005l83.724-145.016H256H88.533l83.729,145.02
		l0.005-0.005L256.005,449.378z M345.836,307.869L259.16,457.993c-0.295,0.601-0.767,1.127-1.395,1.487
		c-1.686,0.974-3.842,0.402-4.822-1.283l-86.787-150.318l0.005-0.005l-0.005-0.009l-86.625-150.04
		c-0.406-0.577-0.647-1.28-0.647-2.037c0-1.954,1.584-3.538,3.538-3.538H256h173.578v0.009c0.601,0,1.21,0.153,1.769,0.476
		c1.686,0.974,2.259,3.136,1.284,4.822l-86.786,150.322l-0.005-0.005L345.836,307.869z"/>
</g>
<circle style="fill:#FAD24D;" cx="82.419" cy="155.786" r="24.59"/>
<circle style="fill:#21D0C3;" cx="256" cy="55.573" r="24.59"/>
<circle style="fill:#FF5B62;" cx="429.571" cy="155.786" r="24.59"/>
<circle style="fill:#FAD24D;" cx="429.571" cy="356.214" r="24.59"/>
<circle style="fill:#21D0C3;" cx="256" cy="456.429" r="24.59"/>
<circle style="fill:#FF5B62;" cx="82.419" cy="356.214" r="24.59"/>
<path style="fill:#B6B6B8;" d="M256,187.107c38.05,0,68.893,30.844,68.893,68.893S294.05,324.893,256,324.893
	S187.107,294.05,187.107,256S217.95,187.107,256,187.107z"/>
<path style="fill:#FFFFFF;" d="M229.183,284.184h2.028l11.866-6.475l1.935-7.551c-2.826-2.854-5.746-7.686-8.407-13.625
	c-0.217,0.037-0.434,0.051-0.661,0.051c-3.136,0-6.245-3.413-6.942-7.625c-0.545-3.298,0.55-6.106,2.55-7.168
	c-2.651-13.538-4.415-34.317,18.895-39.454c13.981-3.081,18.979,7.713,19.588,8.896c8.466-4.748,13.842,2.374,15.223,6.138
	c2.499,6.813,1.686,19.482,0.411,25.085c1.404,1.339,2.088,3.751,1.635,6.503c-0.689,4.143-3.709,7.51-6.79,7.621
	c-2.489,5.473-5.834,10.166-9.228,13.574l1.93,7.551h0.167l11.542,6.475h2.194c10.175,0,19.113,5.349,23.93,13.247
	c-12.572,16.678-32.548,27.463-55.042,27.463c-21.002,0-39.8-9.4-52.437-24.217c4.166-9.658,14.096-16.494,25.62-16.494
	L229.183,284.184z"/>
<g>
</g>
<g>
</g>
<g>
</g>
<g>
</g>
<g>
</g>
<g>
</g>
<g>
</g>
<g>
</g>
<g>
</g>
<g>
</g>
<g>
</g>
<g>
</g>
<g>
</g>
<g>
</g>
<g>
</g>
</svg>
