<?xml version="1.0" encoding="iso-8859-1"?>
<!-- Generator: Adobe Illustrator 19.0.0, SVG Export Plug-In . SVG Version: 6.00 Build 0)  -->
<svg version="1.1" id="Layer_1" xmlns="http://www.w3.org/2000/svg" xmlns:xlink="http://www.w3.org/1999/xlink" x="0px" y="0px"
	 viewBox="0 0 512.002 512.002" style="enable-background:new 0 0 512.002 512.002;" xml:space="preserve">
<circle style="fill:#FAD24D;" cx="256.001" cy="256.001" r="256.001"/>
<path style="fill:#FFFFFF;" d="M89.572,61.491H422.43h49.549c6.004,0,10.917,4.914,10.917,10.917v64.959v237.268
	c-95.572,182.406-358.215,182.406-453.787-0.002V137.369V72.408c0-6.004,4.912-10.917,10.917-10.917h49.549
	C89.574,61.491,89.572,61.491,89.572,61.491z"/>
<path style="fill:#828282;" d="M40.023,61.491h431.952c6.004,0,10.917,4.912,10.917,10.917v21.83H29.104v-21.83
	c0-6.004,4.912-10.917,10.917-10.917C40.021,61.491,40.023,61.491,40.023,61.491z"/>
<path style="fill:#FFFFFF;" d="M231.129,72.796h219.203c1.62,0,2.932,1.312,2.932,2.932v5.441c0,1.62-1.312,2.932-2.932,2.932
	H231.129c-1.62,0-2.932-1.312-2.932-2.932v-5.441C228.196,74.109,229.51,72.796,231.129,72.796z"/>
<circle style="fill:#21D0C3;" cx="50.882" cy="77.13" r="6.286"/>
<circle style="fill:#FAD24D;" cx="75.692" cy="77.13" r="6.286"/>
<circle style="fill:#FF5B62;" cx="100.504" cy="77.13" r="6.286"/>
<rect x="53.668" y="106.243" style="fill:#ECF0F1;" width="404.671" height="133.49"/>
<circle style="fill:#FF5B62;" cx="113.708" cy="286.132" r="26.9"/>
<circle style="fill:#21D0C3;" cx="256.001" cy="286.132" r="26.9"/>
<circle style="fill:#FAD24D;" cx="398.294" cy="286.132" r="26.9"/>
<g>
	<path style="fill:#DCE3DB;" d="M75.109,321.993h77.193v5.457H75.109V321.993z M75.109,356.302h51.85v5.457h-51.85V356.302z
		 M75.109,339.148h77.193v5.457H75.109V339.148z"/>
	<path style="fill:#DCE3DB;" d="M217.404,321.993h77.193v5.457h-77.193L217.404,321.993L217.404,321.993z M217.404,356.302h51.85
		v5.457h-51.85L217.404,356.302L217.404,356.302z M217.404,339.148h77.193v5.457h-77.193L217.404,339.148L217.404,339.148z"/>
	<path style="fill:#DCE3DB;" d="M359.699,321.993h77.193v5.457h-77.193V321.993z M359.699,356.302h51.85v5.457h-51.85V356.302z
		 M359.699,339.148h77.193v5.457h-77.193V339.148z"/>
</g>
<g>
	<rect x="168.811" y="384.77" style="fill:#ECF0F1;" width="172.364" height="1.678"/>
	<rect x="112.63" y="248.256" style="fill:#ECF0F1;" width="284.725" height="1.678"/>
</g>
<rect x="69.786" y="426.229" style="fill:#FAD24D;" width="99.286" height="72.782"/>
<rect x="206.358" y="426.229" style="fill:#21D0C3;" width="99.286" height="72.782"/>
<rect x="342.922" y="426.229" style="fill:#FF5B62;" width="99.286" height="72.782"/>
<path style="fill:#DCE3DB;" d="M112.578,426.228v-18.191v-2.948h2.948h137.531v-18.433h5.894v18.433h137.531h2.948v2.948v18.191
	h-5.893v-15.242H258.95v15.242h-5.894v-15.242H118.472v15.242H112.578z"/>
<g>
	<path style="fill:#FEFEFE;" d="M85.983,446.064h66.896v4.251H85.983V446.064z M85.983,472.795h44.935v4.251H85.983V472.795z
		 M85.983,459.43h66.896v4.251H85.983V459.43z"/>
	<path style="fill:#FEFEFE;" d="M222.554,446.064h66.896v4.251h-66.896V446.064z M222.554,472.795h44.935v4.251h-44.935
		L222.554,472.795L222.554,472.795z M222.554,459.43h66.896v4.251h-66.896V459.43z"/>
	<path style="fill:#FEFEFE;" d="M359.123,446.064h66.896v4.251h-66.896V446.064z M359.123,472.795h44.935v4.251h-44.935V472.795z
		 M359.123,459.43h66.896v4.251h-66.896V459.43z"/>
</g>
<g>
</g>
<g>
</g>
<g>
</g>
<g>
</g>
<g>
</g>
<g>
</g>
<g>
</g>
<g>
</g>
<g>
</g>
<g>
</g>
<g>
</g>
<g>
</g>
<g>
</g>
<g>
</g>
<g>
</g>
</svg>
