<?xml version="1.0" encoding="iso-8859-1"?>
<!-- Generator: Adobe Illustrator 19.0.0, SVG Export Plug-In . SVG Version: 6.00 Build 0)  -->
<svg version="1.1" id="Layer_1" xmlns="http://www.w3.org/2000/svg" xmlns:xlink="http://www.w3.org/1999/xlink" x="0px" y="0px"
	 viewBox="0 0 511.997 511.997" style="enable-background:new 0 0 511.997 511.997;" xml:space="preserve">
<circle style="fill:#21D0C3;" cx="255.999" cy="255.999" r="255.999"/>
<path style="fill:#FFFFFF;" d="M89.573,61.492h332.854h49.549c6.004,0,10.915,4.915,10.915,10.915v64.959v237.266
	c-95.572,182.404-358.213,182.404-453.782-0.003V137.367V72.405c0-6.004,4.913-10.915,10.915-10.915h49.55V61.492z"/>
<g>
	<path style="fill:#DCE3DB;" d="M65.656,390.689h81.947v4.991H65.656V390.689z M65.656,415.017h58.047v4.991H65.656V415.017z
		 M65.656,402.854h81.947v4.991H65.656V402.854z"/>
	<path style="fill:#DCE3DB;" d="M215.023,390.689h81.947v4.991h-81.947V390.689z M215.023,415.017h58.047v4.991h-58.047
		L215.023,415.017L215.023,415.017z M215.023,402.854h81.947v4.991h-81.947V402.854z"/>
</g>
<path style="fill:#ECF0F1;" d="M364.393,390.689h81.947v4.991h-81.947V390.689z M364.393,415.017h58.047v4.991h-58.047V415.017z
	 M364.393,402.854h81.947v4.991h-81.947V402.854z"/>
<path style="fill:#FAD24D;" d="M203.036,289.016h105.927v84.209H203.036V289.016z"/>
<path style="fill:#ECF0F1;" d="M352.403,289.016H458.33v84.209H352.403V289.016z"/>
<path style="fill:#21D0C3;" d="M53.667,289.016h105.927v84.209H53.667V289.016z"/>
<path style="fill:#828282;" d="M40.025,61.492h431.951c6.004,0,10.917,4.913,10.917,10.917v21.831H29.11V72.408
	c0-6.004,4.913-10.917,10.917-10.917C40.027,61.492,40.025,61.492,40.025,61.492z"/>
<path style="fill:#FFFFFF;" d="M231.128,72.796H450.33c1.62,0,2.932,1.313,2.932,2.932v5.44c0,1.62-1.313,2.932-2.932,2.932H231.128
	c-1.62,0-2.932-1.313-2.932-2.932v-5.44C228.196,74.109,229.509,72.796,231.128,72.796z"/>
<circle style="fill:#21D0C3;" cx="50.881" cy="77.139" r="6.285"/>
<circle style="fill:#FAD24D;" cx="75.692" cy="77.139" r="6.285"/>
<circle style="fill:#FF5B62;" cx="100.503" cy="77.139" r="6.285"/>
<rect x="53.667" y="106.242" style="fill:#ECF0F1;" width="404.667" height="133.488"/>
<circle style="fill:#076673;" cx="384.277" cy="383.718" r="127.72"/>
<circle style="fill:#ECF0F1;" cx="384.277" cy="383.718" r="117.121"/>
<circle style="fill:#FFFFFF;" cx="384.277" cy="383.718" r="112.06"/>
<path style="fill:#DCE3DB;" d="M392.453,367.223l-8.173-57.334l-8.173,57.334L342.764,342.2l25.023,33.344l-57.334,8.173
	l57.334,8.173l-25.023,33.344l33.344-25.023l8.173,57.334l8.173-57.334l33.344,25.023l-25.023-33.344l57.334-8.173l-57.334-8.173
	l25.023-33.344L392.453,367.223z"/>
<g>
	<path style="fill:#FF5B62;" d="M284.357,381.015h16.407v5.406h-16.407V381.015z M467.797,381.015h16.407v5.406h-16.407V381.015z"/>
	<path style="fill:#FF5B62;" d="M381.577,483.64v-16.407h5.406v16.407H381.577z M381.577,300.2v-16.407h5.406V300.2H381.577z"/>
	<path style="fill:#FF5B62;" d="M401.497,382.234l40.326-56.061l-56.056,40.323c5.613-1.949,10.886-1.532,14.075,1.658
		C403.034,371.347,403.45,376.618,401.497,382.234z"/>
	<path style="fill:#FF5B62;" d="M382.793,400.94l-56.059,40.326l40.323-56.056c-1.949,5.613-1.534,10.883,1.658,14.075
		C371.907,402.477,377.177,402.888,382.793,400.94z"/>
</g>
<circle style="fill:#FFFFFF;" cx="384.996" cy="383" r="23.025"/>
<circle style="fill:#21D0C3;" cx="384.996" cy="383" r="16.897"/>
<g>
</g>
<g>
</g>
<g>
</g>
<g>
</g>
<g>
</g>
<g>
</g>
<g>
</g>
<g>
</g>
<g>
</g>
<g>
</g>
<g>
</g>
<g>
</g>
<g>
</g>
<g>
</g>
<g>
</g>
</svg>
