<?xml version="1.0" encoding="iso-8859-1"?>
<!-- Generator: Adobe Illustrator 19.0.0, SVG Export Plug-In . SVG Version: 6.00 Build 0)  -->
<svg version="1.1" id="Layer_1" xmlns="http://www.w3.org/2000/svg" xmlns:xlink="http://www.w3.org/1999/xlink" x="0px" y="0px"
	 viewBox="0 0 512 512" style="enable-background:new 0 0 512 512;" xml:space="preserve">
<circle style="fill:#FAD24D;" cx="256" cy="256" r="256"/>
<path style="fill:#21D0C3;" d="M458.02,155.795L458.02,155.795c-56.05-5.845-112.142-11.656-168.193-17.506
	c-56.052-5.854-112.142-11.688-168.228-17.531c-9.497-0.991-15.442,6.43-13.203,16.475c7.552,33.888,15.118,67.798,22.664,101.653
	c7.551,33.865,15.114,67.782,22.665,101.646c2.241,10.044,9.533,18.266,16.248,18.266c39.471,0,78.977,0,118.448,0h87.411v12.932
	c0,1.863-1.925,3.037-3.814,3.037H186.762c-1.888,0-3.555,1.965-3.555,3.827v11.367c0,1.863,1.693,3.77,3.555,3.77h188.684h14.798
	c1.89,0,3.551-1.879,3.551-3.77v-14.798v-16.364h13.07c6.676,0,14.069-6.871,16.432-15.315c7.949-28.413,15.915-56.87,23.853-85.284
	c7.936-28.393,15.929-56.858,23.852-85.278C473.356,164.485,467.518,156.782,458.02,155.795z M184.812,325.217
	c-0.223-0.004-0.519,0.004-0.779,0c-3.116-0.066-6.308-3.668-7.087-7.985c-4.637-25.828-9.29-51.652-13.91-77.482
	c-4.617-25.825-9.231-51.679-13.874-77.553c-0.772-4.319,1.893-7.543,5.861-7.17c0.372,0.034,0.705,0.089,1.039,0.12l0,0
	c4.006,0.399,7.805,4.197,8.497,8.489c4.129,25.654,8.177,51.322,12.277,76.977c4.097,25.637,8.25,51.269,12.354,76.93
	C189.871,321.808,187.929,325.284,184.812,325.217z M225.36,322.745c-0.26-0.004-0.56,0.008-0.816,0
	c-3.116-0.064-6.052-3.57-6.53-7.792c-2.857-25.203-5.714-50.409-8.568-75.611c-2.858-25.227-5.708-50.454-8.571-75.681
	c-0.475-4.199,2.376-7.332,6.418-6.955c0.334,0.032,0.706,0.065,1.037,0.096l0,0c4.009,0.376,7.589,4.103,7.977,8.299
	c2.318,25.037,4.673,50.071,7.009,75.108c2.336,25.011,4.662,50.044,7.012,75.057C230.723,319.458,228.475,322.813,225.36,322.745z
	 M266.461,323.659c-0.222-0.006-0.521-0.022-0.781-0.026c-3.114-0.068-5.828-3.501-6.008-7.602
	c-1.081-24.578-2.151-49.16-3.228-73.741c-1.075-24.578-2.183-49.159-3.264-73.787c-0.178-4.077,2.927-7.117,6.974-6.764
	c0.332,0.03,0.705,0.065,1.037,0.096c4.007,0.377,7.367,4.03,7.455,8.083c0.542,24.434,1.115,48.848,1.672,73.236
	c0.554,24.411,1.098,48.802,1.668,73.188C272.083,320.445,269.611,323.726,266.461,323.659z M320.916,174.785
	c-1.24,23.789-2.413,47.579-3.635,71.343c-1.225,23.79-2.466,47.554-3.674,71.319c-0.201,3.979-2.892,7.165-6.01,7.098
	c-0.257-0.004-0.516-0.019-0.813-0.024c-3.116-0.065-5.565-3.381-5.453-7.387c0.666-23.957,1.373-47.914,2.077-71.87
	c0.706-23.957,1.378-47.936,2.078-71.917c0.116-4.004,3.484-6.947,7.528-6.57c0.335,0.031,0.706,0.064,1.04,0.096l0,0
	C318.059,167.248,321.122,170.805,320.916,174.785z M373.259,179.63c-2.988,23.168-5.972,46.332-8.979,69.471
	c-3.003,23.14-5.989,46.286-8.976,69.424c-0.5,3.885-3.488,6.994-6.566,6.931c-0.26-0.006-0.558-0.02-0.853-0.026
	c-3.079-0.064-5.306-3.309-4.896-7.218c2.447-23.334,4.952-46.64,7.419-69.998c2.466-23.333,4.902-46.672,7.383-70.023
	c0.411-3.89,4.081-6.78,8.051-6.404c0.332,0.031,0.707,0.06,1.074,0.096l0,0C370.883,172.258,373.758,175.748,373.259,179.63z
	 M425.156,186.441c-4.792,22.514-9.552,45.056-14.318,67.577c-4.766,22.513-9.512,45.039-14.282,67.577
	c-0.793,3.746-4.008,6.78-7.123,6.714c-0.259-0.004-0.517-0.018-0.816-0.024c-3.078-0.066-5.014-3.21-4.303-7.002
	c4.258-22.704,8.439-45.423,12.687-68.13c4.246-22.712,8.506-45.416,12.761-68.13c0.717-3.833,4.524-6.634,8.532-6.257
	c0.332,0.031,0.703,0.088,1.039,0.119l0,0C423.299,179.263,425.965,182.627,425.156,186.441z"/>
<path style="fill:#15BDB2;" d="M463.317,170.117l-12.152,42.177l-30.847-3.065c1.61-7.597,3.222-15.194,4.838-22.787
	c0.809-3.815-1.856-7.179-5.825-7.554c-0.336-0.031-0.706-0.089-1.039-0.119c-4.008-0.377-7.815,2.424-8.532,6.257
	c-1.42,7.58-2.838,15.155-4.259,22.735l-35.417-3.52l3.175-24.609c0.499-3.882-2.376-7.374-6.346-7.746
	c-0.367-0.035-0.742-0.065-1.074-0.096c-3.97-0.377-7.639,2.513-8.051,6.404c-0.868,8.19-1.736,16.379-2.596,24.567l-35.534-3.528
	c0.414-8.15,0.829-16.297,1.257-24.446c0.206-3.979-2.857-7.536-6.863-7.912c-0.334-0.032-0.705-0.065-1.04-0.096
	c-4.044-0.377-7.414,2.566-7.528,6.57c-0.24,8.133-0.473,16.27-0.708,24.402l-35.584-3.531c-0.183-8.098-0.366-16.197-0.547-24.3
	c-0.089-4.052-3.448-7.706-7.455-8.083c-0.332-0.031-0.705-0.066-1.037-0.096c-4.048-0.353-7.153,2.687-6.974,6.764
	c0.354,8.08,0.712,16.156,1.07,24.23l-35.703-3.547c-0.749-8.028-1.495-16.06-2.24-24.088c-0.389-4.195-3.969-7.923-7.977-8.299
	c-0.331-0.031-0.703-0.064-1.037-0.096c-4.042-0.376-6.894,2.757-6.418,6.955c0.909,8.012,1.817,16.027,2.726,24.041l-35.751-3.553
	c-1.093-6.837-2.188-13.676-3.288-20.513c-0.693-4.293-4.491-8.09-8.497-8.489c-0.333-0.032-0.666-0.086-1.039-0.12
	c-3.967-0.372-6.633,2.851-5.861,7.17c1.225,6.822,2.446,13.643,3.668,20.461l-25.492-2.532l-18.943-42.892L463.317,170.117
	L463.317,170.117z"/>
<path style="fill:#21D0C3;" d="M477.123,150.72L35.136,108.365l-0.161-61.227c-0.011-3.764-3.046-6.919-6.808-7.017l-11.86-0.306
	c-3.764-0.099-6.883,2.902-6.874,6.665l0.213,80.769c0.009,3.764,3.046,6.921,6.806,7.019l0.521,0.013
	c0.701,0.311,1.46,0.517,2.268,0.594l454.48,43.55c4.093,0.392,7.849-2.585,8.348-6.666l1.578-12.866
	C484.15,154.814,481.217,151.11,477.123,150.72L477.123,150.72z"/>
<circle style="fill:#FFFFFF;" cx="413.572" cy="383.192" r="88.996"/>
<path style="fill:#FF5B62;" d="M413.569,303.683c43.907,0,79.505,35.594,79.505,79.506c0,43.91-35.597,79.508-79.505,79.508
	c-43.91,0-79.506-35.597-79.506-79.508C334.064,339.277,369.66,303.683,413.569,303.683z"/>
<path style="fill:#FFFFFF;" d="M432.813,331.55l5.893-7.906l13.861,8.001l-3.904,9.068c2.687,2.222,5.158,4.694,7.381,7.381
	l9.068-3.904l8.001,13.861l-7.906,5.895c1.205,3.23,2.114,6.604,2.697,10.089l9.802,1.153v16.003l-9.802,1.154
	c-0.584,3.484-1.492,6.86-2.697,10.089l7.906,5.893l-8.001,13.861l-9.069-3.904c-2.222,2.687-4.693,5.158-7.379,7.381l3.904,9.068
	l-13.861,8.001l-5.895-7.906c-3.23,1.205-6.604,2.114-10.089,2.697l-1.153,9.802h-16.003l-1.154-9.802
	c-3.484-0.584-6.86-1.492-10.089-2.697l-5.893,7.906l-13.861-8.001l3.904-9.069c-2.687-2.222-5.158-4.693-7.381-7.379l-9.068,3.904
	l-8.001-13.861l7.906-5.895c-1.205-3.23-2.114-6.604-2.697-10.089l-9.802-1.153v-16.003l9.802-1.154
	c0.584-3.484,1.492-6.86,2.697-10.089l-7.906-5.893l8.001-13.861l9.069,3.904c2.222-2.687,4.693-5.158,7.379-7.381l-3.904-9.068
	l13.861-8.001l5.894,7.906c3.23-1.205,6.604-2.114,10.089-2.697l1.153-9.802h16.003l1.153,9.802
	C426.208,329.438,429.583,330.347,432.813,331.55L432.813,331.55z M413.568,361.754c11.838,0,21.435,9.597,21.435,21.435
	s-9.597,21.435-21.435,21.435c-11.838,0-21.435-9.597-21.435-21.435S401.73,361.754,413.568,361.754z"/>
<circle style="fill:#CCCCCC;" cx="413.572" cy="383.192" r="29.971"/>
<circle style="fill:#FF5B62;" cx="413.572" cy="383.192" r="21.435"/>
<g>
</g>
<g>
</g>
<g>
</g>
<g>
</g>
<g>
</g>
<g>
</g>
<g>
</g>
<g>
</g>
<g>
</g>
<g>
</g>
<g>
</g>
<g>
</g>
<g>
</g>
<g>
</g>
<g>
</g>
</svg>
