<?xml version="1.0" encoding="iso-8859-1"?>
<!-- Generator: Adobe Illustrator 19.0.0, SVG Export Plug-In . SVG Version: 6.00 Build 0)  -->
<svg version="1.1" id="Layer_1" xmlns="http://www.w3.org/2000/svg" xmlns:xlink="http://www.w3.org/1999/xlink" x="0px" y="0px"
	 viewBox="0 0 512.01 512.01" style="enable-background:new 0 0 512.01 512.01;" xml:space="preserve">
<path style="fill:#21D0C3;" d="M255.999,0.005C397.385,0.005,512,114.618,512,256.006c0,141.384-114.615,255.999-256.001,255.999
	S0,397.39,0,256.006C0,114.618,114.614,0.005,255.999,0.005z"/>
<g>
	<path style="fill:#EDB937;" d="M446.961,231.651H57.606L252.282,116.74L446.961,231.651z"/>
	<path style="fill:#EDB937;" d="M57.607,231.651h389.354v229.826H57.607V231.651z"/>
</g>
<path style="fill:#FFFFFF;" d="M97.608,64.451h244.831l64.518,64.518v332.507H97.608V64.451L97.608,64.451z"/>
<path style="fill:#DCE3DB;" d="M144.254,150.283h216.052v4.87H144.254V150.283z M144.254,202.767L144.254,202.767h216.052v4.876
	H144.254V202.767z M144.254,211.807L144.254,211.807h216.052v4.874H144.254V211.807z M144.254,220.846L144.254,220.846h216.052
	v4.871H144.254V220.846z M144.254,229.883L144.254,229.883h216.063v4.872H144.254V229.883z M144.254,159.32L144.254,159.32h216.052
	v4.874H144.254V159.32z M144.254,168.359L144.254,168.359h216.052v4.872H144.254V168.359z M144.254,177.397L144.254,177.397h216.063
	v4.872H144.254V177.397z M144.252,186.435L144.252,186.435h165.495v4.872H144.252V186.435z M144.252,238.92L144.252,238.92h165.495
	v4.874H144.252V238.92z"/>
<path style="fill:#FAD24D;" d="M342.44,64.451v64.518h64.517L342.44,64.451z"/>
<path style="fill:#B3B3B3;" d="M214.436,413.608h73.307v7.162h-73.307V413.608z"/>
<g>
	<path style="fill:#FAD24D;" d="M57.607,231.651l194.676,114.912L57.607,461.477V231.651L57.607,231.651z"/>
	<path style="fill:#FAD24D;" d="M446.961,231.651L252.282,346.561L446.96,461.476V231.651H446.961z"/>
</g>
<path style="fill:#EDB937;" d="M252.283,346.561L57.607,461.477h389.354L252.283,346.561z"/>
<path style="fill:#F7FAFA;" d="M406.957,193.485v-64.516h-64.515L406.957,193.485z"/>
<path style="fill:#FF5B62;" d="M97.612,83.396c21.987,0,39.812,17.825,39.812,39.813c0,21.989-17.825,39.815-39.812,39.815
	c-21.989,0-39.815-17.826-39.815-39.815S75.623,83.396,97.612,83.396z"/>
<path style="fill:#FFFFFF;" d="M100.633,133.708c-1.243,1.438-2.632,2.592-4.178,3.464c-1.536,0.87-3.081,1.3-4.628,1.3
	c-1.704,0-3.355-0.499-4.969-1.486c-1.604-0.998-2.905-2.525-3.913-4.59c-1.008-2.063-1.506-4.334-1.506-6.799
	c0-3.041,0.782-6.085,2.338-9.138c1.555-3.041,3.491-5.332,5.801-6.867c2.309-1.528,4.559-2.291,6.731-2.291
	c1.663,0,3.249,0.43,4.765,1.301c1.508,0.871,2.809,2.201,3.894,3.972l1.008-4.452h5.106l-4.128,19.254
	c-0.579,2.682-0.861,4.158-0.861,4.441c0,0.52,0.196,0.969,0.587,1.34c0.392,0.372,0.87,0.558,1.418,0.558
	c1.017,0,2.349-0.577,3.992-1.741c2.182-1.526,3.913-3.57,5.185-6.144c1.271-2.564,1.907-5.204,1.907-7.935
	c0-3.19-0.821-6.165-2.455-8.924c-1.634-2.768-4.08-4.979-7.329-6.644c-3.237-1.653-6.829-2.485-10.751-2.485
	c-4.48,0-8.579,1.048-12.278,3.131c-3.709,2.094-6.584,5.088-8.619,8.991c-2.045,3.904-3.062,8.09-3.062,12.562
	c0,4.676,1.017,8.697,3.053,12.072c2.044,3.385,4.988,5.88,8.845,7.494c3.854,1.613,8.119,2.415,12.806,2.415
	c5.019,0,9.216-0.84,12.601-2.533c3.385-1.682,5.918-3.738,7.602-6.154h5.165c-0.977,2.006-2.651,4.06-5.018,6.144
	c-2.368,2.084-5.185,3.738-8.452,4.951c-3.269,1.214-7.212,1.82-11.809,1.82c-4.247,0-8.161-0.549-11.742-1.634
	c-3.589-1.087-6.641-2.72-9.166-4.901c-2.525-2.192-4.422-4.707-5.704-7.544c-1.604-3.61-2.407-7.504-2.407-11.681
	c0-4.647,0.959-9.088,2.867-13.305c2.336-5.165,5.653-9.127,9.949-11.877c4.295-2.749,9.499-4.119,15.624-4.119
	c4.745,0,9.01,0.968,12.786,2.905c3.777,1.938,6.761,4.823,8.933,8.658c1.86,3.297,2.789,6.888,2.789,10.762
	c0,5.538-1.947,10.449-5.841,14.742c-3.483,3.855-7.28,5.783-11.407,5.783c-1.322,0-2.377-0.207-3.191-0.607
	c-0.812-0.401-1.407-0.978-1.79-1.732C100.927,135.714,100.751,134.883,100.633,133.708L100.633,133.708z M86.721,125.96
	L86.721,125.96c0,2.622,0.627,4.656,1.869,6.105c1.243,1.458,2.662,2.182,4.274,2.182c1.068,0,2.193-0.324,3.385-0.959
	c1.184-0.646,2.319-1.594,3.396-2.857c1.085-1.262,1.965-2.865,2.651-4.804c0.695-1.936,1.037-3.883,1.037-5.84
	c0-2.593-0.646-4.618-1.936-6.047c-1.291-1.438-2.867-2.153-4.718-2.153c-1.222,0-2.377,0.313-3.463,0.93
	c-1.076,0.626-2.122,1.624-3.139,3.003c-1.008,1.369-1.829,3.042-2.436,5.019C87.024,122.506,86.721,124.316,86.721,125.96z"/>
<circle style="fill:#FF5B62;" cx="412.983" cy="401.431" r="99.027"/>
<path style="fill:#FFFFFF;" d="M412.979,312.974c48.853,0,88.457,39.604,88.457,88.46c0,48.854-39.606,88.46-88.457,88.46
	c-48.855,0-88.46-39.607-88.46-88.46C324.519,352.577,364.125,312.974,412.979,312.974z"/>
<path style="fill:#FAD24D;" d="M391.178,377.103c-2.983,0-5.403-2.418-5.403-5.402c0-2.983,2.42-5.403,5.403-5.403h65.855
	l-13.211-15.478c-1.934-2.261-1.671-5.664,0.591-7.598c2.261-1.934,5.663-1.669,7.597,0.592l20.571,24.1
	c0.959,0.975,1.552,2.311,1.552,3.789c0,1.476-0.593,2.813-1.552,3.789L452.01,399.59c-1.934,2.261-5.337,2.525-7.597,0.591
	c-2.261-1.934-2.525-5.337-0.591-7.597l13.211-15.478h-65.855V377.103z"/>
<path style="fill:#20D0C2;" d="M434.778,425.764c2.983,0,5.403,2.418,5.403,5.402s-2.42,5.403-5.403,5.403h-65.855l13.211,15.478
	c1.934,2.261,1.671,5.664-0.591,7.598c-2.261,1.934-5.663,1.669-7.597-0.592l-20.57-24.099c-0.959-0.975-1.551-2.311-1.551-3.789
	c0-1.476,0.593-2.813,1.552-3.789l20.571-24.099c1.934-2.261,5.337-2.525,7.597-0.591c2.261,1.934,2.525,5.337,0.591,7.597
	l-13.211,15.478h65.853V425.764z"/>
<g>
</g>
<g>
</g>
<g>
</g>
<g>
</g>
<g>
</g>
<g>
</g>
<g>
</g>
<g>
</g>
<g>
</g>
<g>
</g>
<g>
</g>
<g>
</g>
<g>
</g>
<g>
</g>
<g>
</g>
</svg>
