<?xml version="1.0" encoding="iso-8859-1"?>
<!-- Generator: Adobe Illustrator 19.0.0, SVG Export Plug-In . SVG Version: 6.00 Build 0)  -->
<svg version="1.1" id="Layer_1" xmlns="http://www.w3.org/2000/svg" xmlns:xlink="http://www.w3.org/1999/xlink" x="0px" y="0px"
	 viewBox="0 0 512 512" style="enable-background:new 0 0 512 512;" xml:space="preserve">
<circle style="fill:#21D0C3;" cx="256" cy="256" r="256"/>
<path style="fill:#FFFFFF;" d="M109.052,191.484c32.355,0,58.583,26.804,58.583,59.87c0,46.311-29.8,28.855-29.8,79.605
	c0,3.274-2.615,5.948-5.822,5.948H89.069c-3.21,0-5.823-2.675-5.823-5.948c0-49.93-32.778-29.957-32.778-79.605
	C50.467,218.288,76.697,191.484,109.052,191.484L109.052,191.484z"/>
<path style="fill:#0F7986;" d="M90.198,336.907h40.689v21.346c0,3.211-2.626,5.836-5.838,5.836H96.033
	c-3.211,0-5.836-2.625-5.836-5.836V336.907z"/>
<path style="fill:#ECF0F1;" d="M89.509,260.433c1.563,0,2.829,1.625,2.829,2.827c0,1.203-0.369,1.601-0.956,2.12l9.451,27.301
	l0.065,0.185v0.165v43.874h-2.164v-43.708l-9.386-27.114c-1.487-0.084-2.667-1.288-2.667-2.824
	C86.682,261.725,87.947,260.432,89.509,260.433L89.509,260.433z M128.593,260.433c-1.562,0-2.827,1.625-2.827,2.827
	c0,1.203,0.369,1.601,0.956,2.12l-9.452,27.301l-0.064,0.185v0.165v43.874h2.164v-43.708l9.386-27.114
	c1.487-0.084,2.667-1.288,2.667-2.824C131.422,261.725,130.157,260.432,128.593,260.433L128.593,260.433z"/>
<path style="fill:#DCE3DB;" d="M111.671,254.694l-2.948,3.555l19.427-0.932l-24.162,5.354l1.283-4.36l-11.896-0.004L111.671,254.694
	L111.671,254.694z"/>
<path style="fill:#FFFFFF;" d="M402.95,191.484c32.355,0,58.583,26.804,58.583,59.87c0,46.311-29.801,28.855-29.801,79.605
	c0,3.274-2.613,5.948-5.822,5.948h-42.943c-3.211,0-5.823-2.675-5.823-5.948c0-49.93-32.778-29.957-32.778-79.605
	C344.365,218.288,370.594,191.484,402.95,191.484L402.95,191.484z"/>
<path style="fill:#0F7986;" d="M384.096,336.907h40.688v21.346c0,3.211-2.625,5.836-5.836,5.836h-29.015
	c-3.211,0-5.836-2.625-5.836-5.836L384.096,336.907L384.096,336.907z"/>
<path style="fill:#ECF0F1;" d="M383.407,260.433c1.562,0,2.827,1.625,2.827,2.827c0,1.203-0.369,1.601-0.955,2.12l9.451,27.301
	l0.064,0.185v0.165v43.874h-2.164v-43.708l-9.386-27.114c-1.487-0.084-2.667-1.288-2.667-2.824
	C380.578,261.725,381.844,260.432,383.407,260.433L383.407,260.433z M422.491,260.433c-1.562,0-2.827,1.625-2.827,2.827
	c0,1.203,0.369,1.601,0.955,2.12l-9.451,27.301l-0.064,0.185v0.165v43.874h2.163v-43.708l9.387-27.114
	c1.488-0.084,2.665-1.288,2.665-2.824C425.319,261.725,424.053,260.432,422.491,260.433L422.491,260.433z"/>
<path style="fill:#DCE3DB;" d="M405.568,254.694l-2.947,3.555l19.427-0.932l-24.163,5.354l1.283-4.36l-11.896-0.004L405.568,254.694
	L405.568,254.694z"/>
<path style="fill:#FAD24D;" d="M256.003,67.881c67.722,0,122.621,56.105,122.621,125.318c0,96.934-62.376,60.395-62.376,166.622
	c0,6.854-5.471,12.45-12.186,12.45h-89.888c-6.718,0-12.187-5.597-12.187-12.45c0-104.512-68.608-62.704-68.608-166.622
	C133.378,123.987,188.278,67.881,256.003,67.881z"/>
<path style="fill:#0F7986;" d="M216.538,372.272H301.7v34.698c0,6.72-5.497,12.218-12.215,12.218h-60.729
	c-6.719,0-12.217-5.496-12.217-12.218V372.272z"/>
<g>
	<path style="fill:#EDB937;" d="M378.286,204.878c-1.78,14.385-9.305,39.769-38.423,62.96
		c-43.742,34.837-28.031,83.49-33.097,93.962c-4.908,10.143-36.997,10.462-38.996,10.471h36.291c6.714,0,12.186-5.596,12.186-12.452
		C316.247,258.124,373.409,287.258,378.286,204.878L378.286,204.878z"/>
	<path style="fill:#EDB937;" d="M215.098,212.201c3.27,0,5.919,3.402,5.919,5.919c0,2.519-0.772,3.352-2,4.437l19.782,57.145
		l0.133,0.386v0.346v91.836h-4.529v-91.486l-19.646-56.752c-3.114-0.177-5.58-2.698-5.58-5.911
		C209.177,214.907,211.827,212.201,215.098,212.201L215.098,212.201z M296.906,212.201c-3.27,0-5.919,3.402-5.919,5.919
		c0,2.519,0.772,3.352,1.999,4.437l-19.78,57.145l-0.133,0.386v0.346v91.836h4.529v-91.486l19.646-56.752
		c3.114-0.177,5.58-2.698,5.58-5.911C302.828,214.907,300.176,212.201,296.906,212.201L296.906,212.201z"/>
</g>
<path style="fill:#FFFFFF;" d="M261.871,198.887l-8.416,10.56l59.431-5.599l-73.177,18.9l3.164-12.601l-36.493,1.793
	L261.871,198.887L261.871,198.887z"/>
<path style="fill:#ECF0F1;" d="M291.318,419.188c0,2.843-3.817,5.41-9.947,7.232v1.929c0,2.088-1.786,3.795-3.973,3.795h-0.001
	c-2.187,0-3.975-1.707-3.975-3.795v-0.196c-4.311,0.665-9.166,1.039-14.304,1.039s-9.993-0.373-14.304-1.039v0.196
	c0,2.088-1.789,3.795-3.975,3.795h-0.001c-2.187,0-3.973-1.707-3.973-3.795v-1.929c-6.13-1.821-9.947-4.388-9.947-7.232H291.318
	L291.318,419.188z"/>
<path style="fill:#076673;" d="M216.538,394.262H301.7v2.61h-85.162V394.262z M216.538,379.899H301.7v2.61h-85.162V379.899z
	 M216.538,386.424H301.7v2.609h-85.162V386.424z M216.538,400.787H301.7v2.61h-85.162V400.787z"/>
<g>
	<path style="fill:#DCE3DB;" d="M124.895,364.088c0,1.279-1.717,2.433-4.472,3.253v0.867c0,0.939-0.803,1.707-1.787,1.707h-0.001
		c-0.983,0-1.787-0.768-1.787-1.707v-0.087c-1.939,0.298-4.122,0.467-6.432,0.467c-2.31,0-4.493-0.169-6.432-0.467v0.087
		c0,0.939-0.803,1.707-1.787,1.707h-0.001c-0.983,0-1.787-0.768-1.787-1.707v-0.867c-2.756-0.819-4.472-1.973-4.472-3.253H124.895
		L124.895,364.088z"/>
	<path style="fill:#DCE3DB;" d="M418.774,364.088c0,1.279-1.717,2.433-4.472,3.253v0.867c0,0.939-0.803,1.707-1.787,1.707h-0.001
		c-0.983,0-1.786-0.768-1.786-1.707v-0.087c-1.939,0.298-4.122,0.467-6.432,0.467s-4.493-0.169-6.432-0.467v0.087
		c0,0.939-0.803,1.707-1.787,1.707h-0.001c-0.983,0-1.786-0.768-1.786-1.707v-0.867c-2.756-0.819-4.472-1.973-4.472-3.253H418.774
		L418.774,364.088z"/>
</g>
<g>
	<path style="fill:#076673;" d="M90.198,350.54h40.689v1.339H90.198V350.54z M90.198,343.17h40.689v1.339H90.198V343.17z
		 M90.198,346.517h40.689v1.339H90.198V346.517z M90.198,353.89h40.689v1.339H90.198V353.89z"/>
	<path style="fill:#076673;" d="M384.095,350.54h40.689v1.339h-40.689V350.54z M384.095,343.17h40.689v1.339h-40.689V343.17z
		 M384.095,346.517h40.689v1.339h-40.689V346.517z M384.095,353.89h40.689v1.339h-40.689V353.89z"/>
</g>
<g>
</g>
<g>
</g>
<g>
</g>
<g>
</g>
<g>
</g>
<g>
</g>
<g>
</g>
<g>
</g>
<g>
</g>
<g>
</g>
<g>
</g>
<g>
</g>
<g>
</g>
<g>
</g>
<g>
</g>
</svg>
