<?xml version="1.0" encoding="iso-8859-1"?>
<!-- Generator: Adobe Illustrator 19.0.0, SVG Export Plug-In . SVG Version: 6.00 Build 0)  -->
<svg version="1.1" id="Layer_1" xmlns="http://www.w3.org/2000/svg" xmlns:xlink="http://www.w3.org/1999/xlink" x="0px" y="0px"
	 viewBox="0 0 512 512" style="enable-background:new 0 0 512 512;" xml:space="preserve">
<circle style="fill:#ECF0F1;" cx="255.999" cy="256" r="255.999"/>
<circle style="fill:#0F7986;" cx="255.999" cy="256" r="255.999"/>
<path style="fill:#FFFFFF;" d="M89.573,61.493h332.854h49.549c6.004,0,10.915,4.915,10.915,10.915v64.959v237.266
	c-95.572,182.404-358.213,182.404-453.782-0.003V137.368V72.407c0-6.004,4.913-10.915,10.915-10.915L89.573,61.493L89.573,61.493z"
	/>
<g>
	<path style="fill:#ECF0F1;" d="M65.656,390.69h81.947v4.991H65.656V390.69z M65.656,415.018h58.047v4.991H65.656V415.018z
		 M65.656,402.855h81.947v4.991H65.656V402.855z"/>
	<path style="fill:#ECF0F1;" d="M215.023,390.69h81.947v4.991h-81.947V390.69z M215.023,415.018h58.047v4.991h-58.047
		L215.023,415.018L215.023,415.018z M215.023,402.855h81.947v4.991h-81.947V402.855z"/>
</g>
<path style="fill:#FF5B62;" d="M203.036,289.017h105.927v84.209H203.036V289.017z"/>
<path style="fill:#21D0C3;" d="M53.667,289.017h105.927v84.209H53.667V289.017z"/>
<path style="fill:#828282;" d="M40.025,61.493h431.951c6.004,0,10.917,4.913,10.917,10.917v21.831H29.11V72.41
	c0-6.004,4.913-10.917,10.917-10.917C40.027,61.493,40.025,61.493,40.025,61.493z"/>
<path style="fill:#FFFFFF;" d="M231.128,72.798H450.33c1.62,0,2.932,1.313,2.932,2.932v5.44c0,1.62-1.313,2.932-2.932,2.932H231.128
	c-1.62,0-2.932-1.313-2.932-2.932v-5.44C228.196,74.11,229.509,72.798,231.128,72.798z"/>
<circle style="fill:#51BBB2;" cx="50.881" cy="77.14" r="6.285"/>
<g>
	<circle style="fill:#FAD24D;" cx="75.692" cy="77.14" r="6.285"/>
	<path style="fill:#FAD24D;" d="M422.977,281.376l11.688-15.675l27.484,15.867l-7.741,17.984
		c5.328,4.406,10.227,9.307,14.633,14.633l17.984-7.741l15.869,27.484l-15.677,11.688c2.387,6.405,4.189,13.096,5.345,20.006
		L512,367.91v31.736l-19.437,2.288c-1.157,6.909-2.959,13.6-5.345,20.006l15.675,11.688l-15.867,27.484l-17.984-7.741
		c-4.406,5.328-9.307,10.227-14.633,14.633l7.741,17.984l-27.484,15.869l-11.691-15.677c-6.405,2.387-13.096,4.189-20.006,5.346
		l-2.285,19.437h-31.736l-2.288-19.437c-6.909-1.157-13.6-2.959-20.006-5.346l-11.688,15.675l-27.484-15.867l7.741-17.984
		c-5.328-4.406-10.227-9.307-14.633-14.633l-17.984,7.741l-15.869-27.484l15.677-11.691c-2.387-6.405-4.189-13.096-5.346-20.006
		l-19.437-2.285V367.91l19.437-2.288c1.157-6.909,2.959-13.6,5.346-20.006l-15.675-11.688l15.867-27.484l17.984,7.741
		c4.406-5.328,9.307-10.227,14.633-14.633l-7.741-17.984l27.484-15.869l11.691,15.677c6.405-2.387,13.096-4.189,20.006-5.346
		l2.285-19.437h31.736l2.285,19.437C409.878,277.187,416.572,278.989,422.977,281.376z"/>
</g>
<circle style="fill:#FF5B62;" cx="100.503" cy="77.14" r="6.285"/>
<g>
	<rect x="53.667" y="106.243" style="fill:#ECF0F1;" width="404.667" height="133.488"/>
	<circle style="fill:#ECF0F1;" cx="384.816" cy="383.78" r="94.315"/>
</g>
<circle style="fill:#FFFFFF;" cx="384.816" cy="383.78" r="88.097"/>
<path style="fill:#ECF0F1;" d="M309.273,383.776c43.298-63.726,107.792-63.726,151.09,0
	C417.065,447.502,352.571,447.502,309.273,383.776z"/>
<circle style="fill:#21D0C3;" cx="384.816" cy="383.78" r="36.764"/>
<circle style="fill:#15BDB2;" cx="384.816" cy="383.78" r="25.69"/>
<circle style="fill:#666666;" cx="384.816" cy="383.78" r="13.364"/>
<g>
	<circle style="fill:#FFFFFF;" cx="366.592" cy="368.649" r="6.34"/>
	<circle style="fill:#FFFFFF;" cx="395.865" cy="394.838" r="4.315"/>
</g>
<g>
</g>
<g>
</g>
<g>
</g>
<g>
</g>
<g>
</g>
<g>
</g>
<g>
</g>
<g>
</g>
<g>
</g>
<g>
</g>
<g>
</g>
<g>
</g>
<g>
</g>
<g>
</g>
<g>
</g>
</svg>
