<?xml version="1.0" encoding="iso-8859-1"?>
<!-- Generator: Adobe Illustrator 19.0.0, SVG Export Plug-In . SVG Version: 6.00 Build 0)  -->
<svg version="1.1" id="Layer_1" xmlns="http://www.w3.org/2000/svg" xmlns:xlink="http://www.w3.org/1999/xlink" x="0px" y="0px"
	 viewBox="0 0 512 512" style="enable-background:new 0 0 512 512;" xml:space="preserve">
<circle style="fill:#ECF0F1;" cx="256" cy="256" r="256"/>
<circle style="fill:#FAD24D;" cx="256" cy="256" r="256"/>
<path style="fill:#FFFFFF;" d="M89.573,61.492h332.855h49.549c6.003,0,10.916,4.915,10.916,10.916v64.96v237.268
	C387.321,557.04,124.678,557.04,29.108,374.633V137.37V72.408c0-6.003,4.911-10.916,10.916-10.916L89.573,61.492L89.573,61.492z"/>
<g>
	<path style="fill:#DCE3DB;" d="M65.658,390.691h81.948v4.991H65.658V390.691z M65.658,415.018h58.047v4.991H65.658
		C65.658,420.01,65.658,415.018,65.658,415.018z M65.658,402.854h81.948v4.991H65.658V402.854z"/>
	<path style="fill:#DCE3DB;" d="M215.026,390.691h81.948v4.991h-81.948L215.026,390.691L215.026,390.691z M215.026,415.018h58.047
		v4.991h-58.047L215.026,415.018L215.026,415.018z M215.026,402.854h81.948v4.991h-81.948L215.026,402.854L215.026,402.854z"/>
</g>
<path style="fill:#FAD24D;" d="M203.036,289.018h105.928v84.208H203.036V289.018z"/>
<path style="fill:#21D0C3;" d="M53.668,289.018h105.928v84.208H53.668V289.018z"/>
<path style="fill:#828282;" d="M40.024,61.492h431.951c6.004,0,10.917,4.911,10.917,10.917v21.83H29.107V72.408
	C29.107,66.403,34.02,61.492,40.024,61.492L40.024,61.492z"/>
<path style="fill:#FFFFFF;" d="M231.13,72.797h219.202c1.62,0,2.932,1.313,2.932,2.932v5.44c0,1.62-1.313,2.932-2.932,2.932H231.13
	c-1.62,0-2.932-1.313-2.932-2.932v-5.44C228.197,74.11,229.511,72.797,231.13,72.797z"/>
<circle style="fill:#21D0C3;" cx="50.881" cy="77.139" r="6.286"/>
<circle style="fill:#FAD24D;" cx="75.693" cy="77.139" r="6.286"/>
<circle style="fill:#FF5B62;" cx="100.504" cy="77.139" r="6.286"/>
<rect x="53.668" y="106.242" style="fill:#ECF0F1;" width="404.66" height="133.489"/>
<path style="fill:#FF5B62;" d="M422.98,281.375l11.688-15.676l27.484,15.867l-7.741,17.983c5.327,4.406,10.227,9.308,14.633,14.634
	l17.983-7.741l15.868,27.484l-15.677,11.688c2.388,6.405,4.189,13.097,5.346,20.006L512,367.907v31.736l-19.437,2.287
	c-1.157,6.909-2.957,13.6-5.346,20.006l15.676,11.688l-15.867,27.484l-17.984-7.741c-4.406,5.327-9.306,10.227-14.633,14.633
	l7.741,17.983l-27.483,15.868l-11.69-15.677c-6.405,2.388-13.097,4.189-20.006,5.346l-2.286,19.437h-31.736l-2.286-19.437
	c-6.91-1.157-13.6-2.957-20.006-5.346l-11.688,15.676l-27.484-15.867L315.225,468c-5.327-4.406-10.227-9.306-14.633-14.633
	l-17.983,7.741l-15.868-27.483l15.677-11.69c-2.388-6.405-4.19-13.097-5.346-20.006l-19.437-2.286v-31.736l19.437-2.287
	c1.157-6.909,2.957-13.6,5.346-20.006l-15.676-11.688l15.867-27.484l17.984,7.741c4.406-5.327,9.306-10.227,14.633-14.633
	l-7.741-17.983l27.484-15.868l11.69,15.677c6.405-2.388,13.096-4.19,20.006-5.346l2.286-19.437h31.736l2.286,19.437
	C409.881,277.186,416.574,278.987,422.98,281.375L422.98,281.375z"/>
<circle style="fill:#ECF0F1;" cx="384.818" cy="383.77" r="94.106"/>
<circle style="fill:#FFFFFF;" cx="384.818" cy="383.77" r="90.044"/>
<path style="fill:#ECF0F1;" d="M317.88,337.002c0.11,46.228,16.33,108.191,66.938,116.522
	c50.607-8.332,66.828-70.295,66.938-116.522c-23.014,0-48.526-8.404-66.938-22.976C366.406,328.599,340.894,337.002,317.88,337.002z
	"/>
<path style="fill:#21D0C3;" d="M323.522,341.737c1.231,40.15,15.403,97.231,61.296,105.493
	c45.893-8.262,60.066-65.343,61.296-105.493c-21.413-1.168-43.914-8.873-61.296-21.416
	C367.436,332.864,344.935,340.568,323.522,341.737z"/>
<path style="fill:#FFFFFF;" d="M353.704,385.643c-2-1.966-2.026-5.183-0.06-7.183s5.182-2.026,7.182-0.06l17.971,17.721
	l32.871-40.007c1.782-2.163,4.979-2.476,7.143-0.696c2.164,1.78,2.476,4.979,0.697,7.143l-36.258,44.128
	c-0.133,0.178-0.279,0.349-0.44,0.512c-1.966,2-5.183,2.026-7.183,0.06L353.704,385.643L353.704,385.643z"/>
<g>
</g>
<g>
</g>
<g>
</g>
<g>
</g>
<g>
</g>
<g>
</g>
<g>
</g>
<g>
</g>
<g>
</g>
<g>
</g>
<g>
</g>
<g>
</g>
<g>
</g>
<g>
</g>
<g>
</g>
</svg>
