<?xml version="1.0" encoding="iso-8859-1"?>
<!-- Generator: Adobe Illustrator 19.0.0, SVG Export Plug-In . SVG Version: 6.00 Build 0)  -->
<svg version="1.1" id="Layer_1" xmlns="http://www.w3.org/2000/svg" xmlns:xlink="http://www.w3.org/1999/xlink" x="0px" y="0px"
	 viewBox="0 0 511.997 511.997" style="enable-background:new 0 0 511.997 511.997;" xml:space="preserve">
<circle style="fill:#ECF0F1;" cx="255.999" cy="255.999" r="255.999"/>
<circle style="fill:#FF5B62;" cx="255.999" cy="255.999" r="255.999"/>
<path style="fill:#FFFFFF;" d="M89.573,61.492h332.854h49.549c6.004,0,10.915,4.915,10.915,10.915v64.959v237.266
	c-95.572,182.404-358.213,182.404-453.782-0.003V137.367V72.405c0-6.004,4.913-10.915,10.915-10.915h49.55V61.492z"/>
<g>
	<path style="fill:#ECF0F1;" d="M65.656,390.689h81.947v4.991H65.656V390.689z M65.656,415.017h58.047v4.991H65.656V415.017z
		 M65.656,402.854h81.947v4.991H65.656V402.854z"/>
	<path style="fill:#ECF0F1;" d="M215.023,390.689h81.947v4.991h-81.947V390.689z M215.023,415.017h58.047v4.991h-58.047
		L215.023,415.017L215.023,415.017z M215.023,402.854h81.947v4.991h-81.947V402.854z"/>
</g>
<path style="fill:#FAD24D;" d="M203.036,289.016h105.927v84.209H203.036V289.016z"/>
<path style="fill:#21D0C3;" d="M53.667,289.016h105.927v84.209H53.667V289.016z"/>
<path style="fill:#828282;" d="M40.025,61.492h431.951c6.004,0,10.917,4.913,10.917,10.917v21.831H29.11V72.408
	c0-6.004,4.913-10.917,10.917-10.917C40.027,61.492,40.025,61.492,40.025,61.492z"/>
<path style="fill:#FFFFFF;" d="M231.128,72.796H450.33c1.62,0,2.932,1.313,2.932,2.932v5.44c0,1.62-1.313,2.932-2.932,2.932H231.128
	c-1.62,0-2.932-1.313-2.932-2.932v-5.44C228.196,74.109,229.509,72.796,231.128,72.796z"/>
<circle style="fill:#21D0C3;" cx="50.881" cy="77.139" r="6.285"/>
<circle style="fill:#FAD24D;" cx="75.692" cy="77.139" r="6.285"/>
<circle style="fill:#FF5B62;" cx="100.503" cy="77.139" r="6.285"/>
<rect x="53.667" y="106.242" style="fill:#ECF0F1;" width="404.667" height="133.488"/>
<g>
	<path style="fill:#21D0C3;" d="M387.591,433.194l-34.689-19.197l-59.08,78.806l30.096-9.075l4.593,28.27l59.08-78.806
		L387.591,433.194L387.591,433.194z"/>
	<path style="fill:#21D0C3;" d="M387.591,433.194l34.692-19.197l59.08,78.806l-30.096-9.075l-4.593,28.27l-59.08-78.806
		L387.591,433.194z"/>
</g>
<path style="fill:#FF5B62;" d="M387.591,262.261c8.506,0,15.41,6.852,15.505,15.337l1.322,0.258
	c3.333-7.801,12.334-11.484,20.194-8.228c7.859,3.25,11.609,12.231,8.448,20.103l1.118,0.745c6.064-5.938,15.79-5.899,21.81,0.121
	c6.017,6.009,6.048,15.74,0.116,21.805l0.745,1.12c7.875-3.169,16.848,0.59,20.106,8.453c3.258,7.854-0.435,16.853-8.231,20.184
	l0.257,1.324c8.485,0.092,15.334,6.995,15.334,15.505c0.003,8.501-6.857,15.405-15.337,15.5l-0.257,1.324
	c7.801,3.331,11.487,12.331,8.228,20.191c-3.25,7.856-12.231,11.609-20.103,8.448l-0.748,1.12
	c5.938,6.062,5.901,15.788-0.118,21.807c-6.009,6.014-15.74,6.049-21.805,0.116l-1.12,0.745c3.171,7.875-0.59,16.85-8.454,20.108
	c-7.854,3.258-16.853-0.435-20.184-8.231l-1.324,0.258c-0.089,8.482-6.995,15.334-15.505,15.334
	c-8.501,0.003-15.408-6.857-15.5-15.337l-1.324-0.258c-3.331,7.801-12.328,11.484-20.191,8.228
	c-7.856-3.253-11.612-12.231-8.448-20.106l-1.12-0.745c-6.062,5.938-15.79,5.899-21.81-0.118
	c-6.012-6.012-6.051-15.743-0.116-21.807l-0.745-1.12c-7.872,3.169-16.85-0.59-20.108-8.454c-3.256-7.856,0.433-16.858,8.231-20.186
	l-0.258-1.322c-8.482-0.089-15.337-6.998-15.337-15.505c-0.003-8.503,6.854-15.408,15.337-15.5l0.258-1.322
	c-7.801-3.331-11.484-12.331-8.228-20.191c3.253-7.859,12.228-11.614,20.106-8.451l0.745-1.118
	c-5.938-6.064-5.899-15.79,0.118-21.807c6.012-6.017,15.74-6.054,21.805-0.116l1.12-0.745c-3.166-7.877,0.593-16.85,8.453-20.106
	c7.856-3.256,16.855,0.43,20.189,8.228l1.322-0.257c0.092-8.485,6.998-15.337,15.502-15.337L387.591,262.261z"/>
<circle style="fill:#ECF0F1;" cx="387.591" cy="358.987" r="76.57"/>
<circle style="fill:#FFFFFF;" cx="387.591" cy="358.987" r="72.308"/>
<path style="fill:#FAD24D;" d="M387.591,313.189l10.177,31.534l33.136-0.066l-26.843,19.423l10.295,31.494l-26.768-19.526
	l-26.768,19.526l10.295-31.494l-26.843-19.423l33.136,0.066l10.177-31.534H387.591z"/>
<g>
</g>
<g>
</g>
<g>
</g>
<g>
</g>
<g>
</g>
<g>
</g>
<g>
</g>
<g>
</g>
<g>
</g>
<g>
</g>
<g>
</g>
<g>
</g>
<g>
</g>
<g>
</g>
<g>
</g>
</svg>
