<?xml version="1.0" encoding="iso-8859-1"?>
<!-- Generator: Adobe Illustrator 19.0.0, SVG Export Plug-In . SVG Version: 6.00 Build 0)  -->
<svg version="1.1" id="Layer_1" xmlns="http://www.w3.org/2000/svg" xmlns:xlink="http://www.w3.org/1999/xlink" x="0px" y="0px"
	 viewBox="0 0 512 512" style="enable-background:new 0 0 512 512;" xml:space="preserve">
<circle style="fill:#ECF0F1;" cx="256" cy="256" r="256"/>
<circle style="fill:#21D0C3;" cx="256" cy="256" r="256"/>
<path style="fill:#FFFFFF;" d="M89.573,61.492h332.855h49.549c6.003,0,10.916,4.915,10.916,10.916v64.96v237.268
	C387.321,557.04,124.678,557.04,29.108,374.633V137.37V72.408c0-6.003,4.911-10.916,10.916-10.916L89.573,61.492L89.573,61.492z"/>
<g>
	<path style="fill:#ECF0F1;" d="M65.658,390.691h81.948v4.991H65.658V390.691z M65.658,415.018h58.047v4.991H65.658
		C65.658,420.01,65.658,415.018,65.658,415.018z M65.658,402.854h81.948v4.991H65.658V402.854z"/>
	<path style="fill:#ECF0F1;" d="M215.026,390.691h81.948v4.991h-81.948L215.026,390.691L215.026,390.691z M215.026,415.018h58.047
		v4.991h-58.047L215.026,415.018L215.026,415.018z M215.026,402.854h81.948v4.991h-81.948L215.026,402.854L215.026,402.854z"/>
</g>
<path style="fill:#FF5B62;" d="M203.036,289.018h105.928v84.208H203.036V289.018z"/>
<path style="fill:#FAD24D;" d="M53.668,289.018h105.928v84.208H53.668V289.018z"/>
<path style="fill:#828282;" d="M40.024,61.492h431.951c6.004,0,10.917,4.911,10.917,10.917v21.83H29.107V72.408
	C29.107,66.403,34.02,61.492,40.024,61.492L40.024,61.492z"/>
<path style="fill:#FFFFFF;" d="M231.13,72.797h219.202c1.62,0,2.932,1.313,2.932,2.932v5.44c0,1.62-1.313,2.932-2.932,2.932H231.13
	c-1.62,0-2.932-1.313-2.932-2.932v-5.44C228.197,74.11,229.511,72.797,231.13,72.797z"/>
<circle style="fill:#21D0C3;" cx="50.881" cy="77.139" r="6.286"/>
<circle style="fill:#FAD24D;" cx="75.693" cy="77.139" r="6.286"/>
<circle style="fill:#FF5B62;" cx="100.504" cy="77.139" r="6.286"/>
<rect x="53.668" y="106.242" style="fill:#ECF0F1;" width="404.66" height="133.489"/>
<path style="fill:#FAD24D;" d="M422.98,281.375l11.688-15.676l27.484,15.867l-7.741,17.983c5.327,4.406,10.227,9.308,14.633,14.634
	l17.983-7.741l15.868,27.484l-15.677,11.688c2.388,6.405,4.189,13.097,5.346,20.006L512,367.907v31.736l-19.437,2.287
	c-1.157,6.909-2.957,13.6-5.346,20.006l15.676,11.688l-15.867,27.484l-17.984-7.741c-4.406,5.327-9.306,10.227-14.633,14.633
	l7.741,17.983l-27.483,15.868l-11.69-15.677c-6.405,2.388-13.097,4.189-20.006,5.346l-2.286,19.437h-31.736l-2.286-19.437
	c-6.91-1.157-13.6-2.957-20.006-5.346l-11.688,15.676l-27.484-15.867L315.225,468c-5.327-4.406-10.227-9.306-14.633-14.633
	l-17.983,7.741l-15.868-27.483l15.677-11.69c-2.388-6.405-4.19-13.097-5.346-20.006l-19.437-2.286v-31.736l19.437-2.287
	c1.157-6.909,2.957-13.6,5.346-20.006l-15.676-11.688l15.867-27.484l17.984,7.741c4.406-5.327,9.306-10.227,14.633-14.633
	l-7.741-17.983l27.484-15.868l11.69,15.677c6.405-2.388,13.096-4.19,20.006-5.346l2.286-19.437h31.736l2.286,19.437
	C409.881,277.186,416.574,278.987,422.98,281.375L422.98,281.375z"/>
<circle style="fill:#ECF0F1;" cx="384.818" cy="383.77" r="94.106"/>
<circle style="fill:#FFFFFF;" cx="384.818" cy="383.77" r="90.044"/>
<path style="fill:#21D0C3;" d="M357.78,304.599l2.375-0.772l2.109,6.488l-2.375,0.772L357.78,304.599z M411.858,462.95l-2.375,0.772
	l-2.109-6.489l2.376-0.772L411.858,462.95z M463.995,356.736l0.772,2.375l-6.488,2.109l-0.772-2.376L463.995,356.736z
	 M409.483,303.828l2.375,0.772l-2.108,6.488l-2.376-0.772L409.483,303.828z M432.981,315.361l2.019,1.467l-4.009,5.52l-2.022-1.467
	L432.981,315.361L432.981,315.361z M451.765,333.592l1.467,2.02l-5.52,4.011l-1.467-2.022L451.765,333.592z M464.766,408.438
	l-0.772,2.375l-6.488-2.109l0.772-2.375L464.766,408.438z M453.233,431.935l-1.467,2.022l-5.52-4.011l1.467-2.022L453.233,431.935z
	 M435,450.719l-2.019,1.469l-4.011-5.52l2.022-1.469L435,450.719L435,450.719z M360.156,463.722l-2.375-0.772l2.109-6.489
	l2.375,0.772L360.156,463.722z M336.658,452.188l-2.022-1.469l4.011-5.52l2.022,1.469L336.658,452.188z M317.875,433.957
	l-1.469-2.022l5.52-4.011l1.469,2.022L317.875,433.957z M305.644,410.814l-0.772-2.375l6.489-2.109l0.772,2.375L305.644,410.814z
	 M304.872,359.111l0.772-2.375l6.489,2.108l-0.772,2.376L304.872,359.111z M316.406,335.613l1.469-2.02l5.52,4.01l-1.469,2.022
	L316.406,335.613z M334.636,316.829l2.022-1.467l4.011,5.52l-2.022,1.467L334.636,316.829z"/>
<g>
	<path style="fill:#FF5B62;" d="M454.687,381.513h13.725v4.523h-13.725V381.513z M301.225,381.513h13.726v4.523h-13.726V381.513z"/>
	<path style="fill:#FF5B62;" d="M382.558,313.907v-13.725h4.523v13.725H382.558z M382.558,467.369v-13.726h4.523v13.726H382.558z"/>
</g>
<path style="fill:#828282;" d="M382.524,332.285l2.657-2.656l2.597,2.656v52.86h-5.254L382.524,332.285L382.524,332.285z"/>
<path style="fill:#FF5B62;" d="M336.756,423.161l-3.619,0.709l1.711-3.255l47.474-35.586l1.908,2.546L336.756,423.161
	L336.756,423.161z"/>
<path style="fill:#828282;" d="M433.477,382.138l3.022,2.633l-2.982,2.62l-48.279,0.449l-0.04-5.254L433.477,382.138
	L433.477,382.138z"/>
<circle style="fill:#ECF0F1;" cx="385.008" cy="385.028" r="8.844"/>
<circle style="fill:#21D0C3;" cx="385.008" cy="385.028" r="7.026"/>
<g>
</g>
<g>
</g>
<g>
</g>
<g>
</g>
<g>
</g>
<g>
</g>
<g>
</g>
<g>
</g>
<g>
</g>
<g>
</g>
<g>
</g>
<g>
</g>
<g>
</g>
<g>
</g>
<g>
</g>
</svg>
