<?xml version="1.0" encoding="iso-8859-1"?>
<!-- Generator: Adobe Illustrator 19.0.0, SVG Export Plug-In . SVG Version: 6.00 Build 0)  -->
<svg version="1.1" id="Layer_1" xmlns="http://www.w3.org/2000/svg" xmlns:xlink="http://www.w3.org/1999/xlink" x="0px" y="0px"
	 viewBox="0 0 511.998 511.998" style="enable-background:new 0 0 511.998 511.998;" xml:space="preserve">
<circle style="fill:#ECF0F1;" cx="255.999" cy="255.999" r="255.999"/>
<circle style="fill:#FAD24D;" cx="255.999" cy="255.999" r="255.999"/>
<path style="fill:#FFFFFF;" d="M89.572,61.491h332.855h49.549c6.004,0,10.917,4.914,10.917,10.917v64.959v237.268
	c-95.571,182.405-358.215,182.405-453.784-0.002V137.37V72.409c0-6.004,4.912-10.917,10.917-10.917h49.549L89.572,61.491z"/>
<g>
	<path style="fill:#ECF0F1;" d="M65.656,390.689h81.948v4.992H65.656V390.689z M65.656,415.016h58.047v4.992H65.656V415.016z
		 M65.656,402.852h81.948v4.992H65.656V402.852z"/>
	<path style="fill:#ECF0F1;" d="M215.025,390.689h81.948v4.992h-81.948L215.025,390.689L215.025,390.689z M215.025,415.016h58.047
		v4.992h-58.047V415.016z M215.025,402.852h81.948v4.992h-81.948L215.025,402.852L215.025,402.852z"/>
</g>
<path style="fill:#FAD24D;" d="M203.036,289.015h105.928v84.207H203.036V289.015z"/>
<path style="fill:#21D0C3;" d="M53.668,289.015h105.928v84.207H53.668V289.015z"/>
<path style="fill:#828282;" d="M40.023,61.491h431.951c6.004,0,10.917,4.912,10.917,10.917v21.83H29.106v-21.83
	C29.106,66.403,34.018,61.491,40.023,61.491z"/>
<path style="fill:#FFFFFF;" d="M231.13,72.798h219.201c1.62,0,2.932,1.312,2.932,2.932v5.441c0,1.62-1.312,2.932-2.932,2.932H231.13
	c-1.62,0-2.932-1.312-2.932-2.932V75.73C228.197,74.11,229.51,72.798,231.13,72.798z"/>
<circle style="fill:#21D0C3;" cx="50.881" cy="77.129" r="6.286"/>
<circle style="fill:#FAD24D;" cx="75.692" cy="77.129" r="6.286"/>
<circle style="fill:#FF5B62;" cx="100.503" cy="77.129" r="6.286"/>
<rect x="53.668" y="106.242" style="fill:#ECF0F1;" width="404.668" height="133.489"/>
<path style="fill:#21D0C3;" d="M422.977,281.373l11.688-15.676l27.483,15.868l-7.741,17.983c5.327,4.405,10.226,9.307,14.633,14.633
	l17.983-7.741l15.868,27.483l-15.676,11.688c2.388,6.405,4.189,13.096,5.347,20.007l19.436,2.287v31.737l-19.436,2.287
	c-1.156,6.909-2.956,13.599-5.347,20.007l15.676,11.688l-15.868,27.483l-17.985-7.741c-4.405,5.327-9.307,10.226-14.633,14.633
	l7.741,17.983l-27.483,15.868l-11.69-15.676c-6.405,2.388-13.096,4.189-20.007,5.347l-2.286,19.436h-31.737l-2.286-19.436
	c-6.909-1.156-13.599-2.956-20.007-5.347l-11.688,15.676l-27.483-15.868l7.741-17.985c-5.327-4.405-10.226-9.307-14.633-14.633
	l-17.983,7.741l-15.868-27.483l15.676-11.69c-2.388-6.405-4.189-13.096-5.347-20.007l-19.436-2.286V367.9l19.436-2.286
	c1.156-6.91,2.956-13.599,5.347-20.007l-15.676-11.688l15.868-27.483l17.985,7.741c4.405-5.327,9.307-10.226,14.633-14.633
	l-7.741-17.983l27.483-15.868l11.69,15.676c6.405-2.388,13.096-4.189,20.007-5.347l2.287-19.436h31.737l2.287,19.436
	c6.907,1.156,13.601,2.956,20.007,5.347L422.977,281.373L422.977,281.373z"/>
<circle style="fill:#ECF0F1;" cx="384.817" cy="383.769" r="94.315"/>
<circle style="fill:#FFFFFF;" cx="384.817" cy="383.769" r="89.821"/>
<path style="fill:#FF5B62;" d="M371.377,366.531c-11.304-5.12-19.171-16.497-19.175-29.715
	c-0.007-12.378,6.882-23.151,17.037-28.681l0.013,25.977l15.658,7.686l15.467-7.702l-0.013-25.977
	c10.162,5.519,17.064,16.285,17.068,28.663c0.009,13.216-7.845,24.602-19.145,29.735c0.113,0.702,0.172,1.422,0.172,2.154
	l0.026,53.099l6.052,3.494v11.386v11.386l-9.86,5.693l-9.863,5.693l-9.86-5.693l-9.86-5.693v-11.386v-11.386l6.136-3.543
	l-0.027-53.037c0-0.732,0.06-1.453,0.172-2.157v0.004H371.377z M384.816,424.527l5.252,3.032l5.252,3.032v6.063v6.063l-5.252,3.032
	l-5.252,3.032l-5.25-3.032l-5.252-3.032v-6.063v-6.063l5.252-3.032L384.816,424.527z"/>
<g>
</g>
<g>
</g>
<g>
</g>
<g>
</g>
<g>
</g>
<g>
</g>
<g>
</g>
<g>
</g>
<g>
</g>
<g>
</g>
<g>
</g>
<g>
</g>
<g>
</g>
<g>
</g>
<g>
</g>
</svg>
