<?xml version="1.0" encoding="iso-8859-1"?>
<!-- Generator: Adobe Illustrator 19.0.0, SVG Export Plug-In . SVG Version: 6.00 Build 0)  -->
<svg version="1.1" id="Layer_1" xmlns="http://www.w3.org/2000/svg" xmlns:xlink="http://www.w3.org/1999/xlink" x="0px" y="0px"
	 viewBox="0 0 512.007 512.007" style="enable-background:new 0 0 512.007 512.007;" xml:space="preserve">
<g>
	<circle style="fill:#ECF0F1;" cx="255.719" cy="256.004" r="255.719"/>
	<circle style="fill:#ECF0F1;" cx="255.719" cy="256.004" r="255.719"/>
</g>
<circle style="fill:#FF5B62;" cx="255.719" cy="256.004" r="255.719"/>
<path style="fill:#FFFFFF;" d="M89.475,61.709h332.489h49.497c5.996,0,10.904,4.909,10.904,10.904v64.89v237.005
	c-95.466,182.205-357.82,182.205-453.285-0.005V137.502v-64.89c0-5.996,4.909-10.904,10.904-10.904h49.496
	C89.479,61.709,89.475,61.709,89.475,61.709z"/>
<g>
	<path style="fill:#ECF0F1;" d="M65.585,390.547h81.858v4.987H65.585V390.547z M65.585,414.846h57.983v4.987H65.585V414.846z
		 M65.585,402.694h81.858v4.987H65.585V402.694z"/>
	<path style="fill:#ECF0F1;" d="M214.788,390.547h81.858v4.987h-81.858V390.547z M214.788,414.846h57.983v4.987h-57.983V414.846z
		 M214.788,402.694h81.858v4.987h-81.858V402.694z"/>
</g>
<path style="fill:#FAD24D;" d="M202.811,288.985h105.812v84.114H202.811V288.985z"/>
<path style="fill:#21D0C3;" d="M53.608,288.985H159.42v84.114H53.608V288.985z"/>
<path style="fill:#828282;" d="M39.978,61.709h431.478c6,0,10.904,4.909,10.904,10.904v21.808H29.074V72.612
	C29.074,66.613,33.983,61.709,39.978,61.709z"/>
<path style="fill:#FFFFFF;" d="M230.877,73.004h218.965c1.617,0,2.929,1.311,2.929,2.929v5.433c0,1.617-1.311,2.929-2.929,2.929
	H230.877c-1.617,0-2.929-1.311-2.929-2.929v-5.433C227.948,74.315,229.259,73.004,230.877,73.004z"/>
<circle style="fill:#21D0C3;" cx="50.823" cy="77.339" r="6.281"/>
<circle style="fill:#FAD24D;" cx="75.61" cy="77.339" r="6.281"/>
<circle style="fill:#FF5B62;" cx="100.394" cy="77.339" r="6.281"/>
<rect x="53.608" y="106.41" style="fill:#ECF0F1;" width="404.226" height="133.353"/>
<circle style="fill:#21D0C3;" cx="384.397" cy="383.644" r="127.61"/>
<circle style="fill:#ECF0F1;" cx="384.397" cy="383.644" r="117.142"/>
<circle style="fill:#FFFFFF;" cx="384.397" cy="383.644" r="112.158"/>
<g>
	<path style="fill:#666666;" d="M310.17,347.179c-1.818,0.543-3.707-0.589-4.218-2.532s0.552-3.96,2.372-4.503l20.882-6.29
		c1.045-0.313,2.114-0.074,2.933,0.557l0,0l26.463,20.45c1.528,1.183,1.874,3.472,0.765,5.102c-1.11,1.635-3.251,1.999-4.784,0.815
		l-25.118-19.416l-19.289,5.811L310.17,347.179z M458.618,347.179c1.818,0.543,3.707-0.589,4.218-2.532s-0.552-3.96-2.372-4.503
		l-20.882-6.29c-1.045-0.313-2.114-0.074-2.933,0.557l0,0l-26.463,20.45c-1.528,1.183-1.874,3.472-0.765,5.102
		c1.11,1.635,3.251,1.999,4.784,0.815l25.118-19.414l19.289,5.811L458.618,347.179z M409.923,382.046
		c-1.878,0.23-3.228,2.04-3.016,4.048c0.216,2.003,1.911,3.444,3.789,3.214l43.16-5.346l10.84,23.428
		c0.833,1.809,2.887,2.551,4.582,1.658c1.695-0.893,2.39-3.081,1.556-4.89l-11.83-25.57c-0.58-1.442-1.999-2.376-3.536-2.187
		l-45.55,5.641L409.923,382.046z M422.203,418.921c-1.792-0.64-3.726,0.392-4.324,2.302c-0.598,1.911,0.369,3.979,2.155,4.619
		l23.092,8.238l-2.349,23.18c-0.198,2.003,1.16,3.803,3.039,4.016c1.878,0.211,3.564-1.243,3.762-3.246l2.648-26.09h-0.005
		c0.17-1.667-0.765-3.292-2.316-3.845l-25.704-9.168L422.203,418.921L422.203,418.921z M346.585,418.921
		c1.792-0.64,3.726,0.392,4.324,2.302c0.598,1.911-0.369,3.979-2.155,4.619l-23.092,8.238l2.349,23.18
		c0.198,2.003-1.16,3.803-3.039,4.016c-1.878,0.211-3.564-1.243-3.763-3.246l-2.648-26.09h0.005
		c-0.17-1.667,0.765-3.292,2.316-3.845l25.704-9.168L346.585,418.921L346.585,418.921z M358.865,382.046
		c1.878,0.23,3.228,2.04,3.016,4.048c-0.216,2.003-1.911,3.444-3.789,3.214l-43.16-5.346l-10.84,23.428
		c-0.833,1.809-2.887,2.551-4.582,1.658c-1.695-0.893-2.39-3.081-1.556-4.89l11.83-25.57c0.58-1.442,1.999-2.376,3.536-2.187
		l45.55,5.641L358.865,382.046z"/>
	<ellipse style="fill:#666666;" cx="384.397" cy="323.478" rx="26.385" ry="23.365"/>
</g>
<ellipse style="fill:#FF5B62;" cx="384.397" cy="397.502" rx="50.841" ry="67.982"/>
<g>
	<ellipse style="fill:#666666;" cx="365.135" cy="365.469" rx="7.809" ry="8.335"/>
	<ellipse style="fill:#666666;" cx="403.658" cy="365.469" rx="7.809" ry="8.335"/>
	<ellipse style="fill:#666666;" cx="353.979" cy="395.228" rx="5.061" ry="5.402"/>
	<ellipse style="fill:#666666;" cx="414.814" cy="395.228" rx="5.061" ry="5.402"/>
	<ellipse style="fill:#666666;" cx="363.53" cy="421.748" rx="3.472" ry="3.703"/>
	<ellipse style="fill:#666666;" cx="405.253" cy="421.748" rx="3.472" ry="3.703"/>
	<path style="fill:#666666;" d="M366.44,290.421c1.129,0,2.15,0.488,2.887,1.275l-0.005,0.005c0.742,0.788,1.197,1.878,1.197,3.081
		s-0.456,2.293-1.197,3.081c-0.083,0.088-0.165,0.17-0.258,0.253l3.698,8.883l-2.082,0.981l-3.698-8.878
		c-0.184,0.028-0.369,0.042-0.552,0.042c-1.124,0-2.145-0.488-2.887-1.28l-0.005,0.005c-0.742-0.788-1.197-1.878-1.197-3.081
		c0-1.197,0.456-2.289,1.197-3.076l0.005-0.005l0.005-0.005c0.742-0.792,1.764-1.275,2.882-1.275L366.44,290.421z M402.353,290.421
		c-1.129,0-2.15,0.488-2.887,1.275l0.005,0.005c-0.742,0.788-1.197,1.878-1.197,3.081s0.456,2.293,1.197,3.081
		c0.083,0.088,0.165,0.17,0.258,0.253l-3.698,8.883l2.082,0.981l3.698-8.878c0.184,0.028,0.369,0.042,0.552,0.042
		c1.124,0,2.145-0.488,2.887-1.28l0.005,0.005c0.742-0.788,1.197-1.878,1.197-3.081c0-1.197-0.456-2.289-1.197-3.076l-0.005-0.005
		l-0.005-0.005c-0.742-0.792-1.764-1.275-2.882-1.275L402.353,290.421z"/>
</g>
<g>
</g>
<g>
</g>
<g>
</g>
<g>
</g>
<g>
</g>
<g>
</g>
<g>
</g>
<g>
</g>
<g>
</g>
<g>
</g>
<g>
</g>
<g>
</g>
<g>
</g>
<g>
</g>
<g>
</g>
</svg>
